<svg width="80" height="80" viewBox="0 0 80 80" fill="none" xmlns="http://www.w3.org/2000/svg">
<path fill-rule="evenodd" clip-rule="evenodd" d="M15.8031 33.3953H15.8008V62.2828H15.8012L15.8008 79.1906C25.1398 79.1906 32.7108 71.6211 32.7143 62.2828V57.4894C34.8654 58.249 37.1507 58.7217 39.5234 58.8736C39.8176 58.749 43.2979 57.2356 44.7852 54.8849C44.7894 54.8776 45.0506 56.8929 43.4802 58.8213C56.3973 57.6487 66.5186 46.795 66.5186 33.573C66.5186 19.5679 55.165 8.21387 41.1595 8.21387C27.2136 8.21387 15.8989 19.4717 15.8031 33.3953Z" fill="#679AFF"/>
<path fill-rule="evenodd" clip-rule="evenodd" d="M14.1273 0.00035029C14.0735 -0.0723406 13.7312 11.1874 29.392 15.9808C29.6524 16.0604 37.9065 8.41903 37.9065 8.41903C37.9065 8.41903 21.7929 10.2786 14.1273 0.00035029Z" fill="#679AFF"/>
<path fill-rule="evenodd" clip-rule="evenodd" d="M15.3015 12.3111C15.2503 12.2823 18.0472 19.0106 28.5554 17.6656C28.7297 17.6437 31.5604 10.9412 31.5604 10.9412C31.5604 10.9412 22.5571 16.3284 15.3015 12.3111Z" fill="#679AFF"/>
<path fill-rule="evenodd" clip-rule="evenodd" d="M41.9576 45.7018C35.2327 45.7018 29.7812 40.2504 29.7812 33.5255C29.7812 26.8007 35.2327 21.3492 41.9576 21.3492C48.6824 21.3492 54.1339 26.8007 54.1339 33.5255C54.1339 40.2504 48.6824 45.7018 41.9576 45.7018Z" fill="white"/>
<path fill-rule="evenodd" clip-rule="evenodd" d="M42.1624 41.2532C37.7471 41.2532 34.168 37.6736 34.168 33.2587C34.168 28.8438 37.7471 25.2646 42.1624 25.2646C46.5773 25.2646 50.1565 28.8438 50.1565 33.2587C50.1565 37.6736 46.5773 41.2532 42.1624 41.2532Z" fill="#679AFF"/>
<path fill-rule="evenodd" clip-rule="evenodd" d="M45.5252 31.7719C44.0421 31.7719 42.8398 30.5696 42.8398 29.0869C42.8398 27.6042 44.0421 26.4023 45.5252 26.4023C47.0078 26.4023 48.2101 27.6042 48.2101 29.0869C48.2101 30.5696 47.0078 31.7719 45.5252 31.7719Z" fill="white"/>
</svg>
