<?xml version="1.0" standalone="no"?>
<!DOCTYPE svg PUBLIC "-//W3C//DTD SVG 1.1//EN" "http://www.w3.org/Graphics/SVG/1.1/DTD/svg11.dtd" >
<!--
2013-9-30: Created.
-->
<svg>
<metadata>
Created by iconfont
</metadata>
<defs>

<font id="iconfont" horiz-adv-x="1024" >
  <font-face
    font-family="iconfont"
    font-weight="500"
    font-stretch="normal"
    units-per-em="1024"
    ascent="896"
    descent="-128"
  />
    <missing-glyph />
    
    <glyph glyph-name="moxing" unicode="&#59572;" d="M1025.1 328c0 24.2-13.7 46.4-35.4 57.2l-202.3 101c-10.8 5.4-17.7 16.5-17.7 28.6V723.3c0 26.7-16.6 50.6-41.6 59.9L550.5 849.7c-24.2 9-50.8 9-74.9-0.1l-176.9-66.8c-24.9-9.4-41.4-33.3-41.4-59.9v-207.1c0-12.1-6.9-23.2-17.7-28.6L35.5 385.3C13.8 374.5 0 352.20000000000005 0.1 327.9l0.5-226c0-23.2 12.6-44.5 32.9-55.8l223.8-124.6 1.2-0.7c18.9-10.5 41.9-10.4 60.8 0.2l2 1.1L497 22.799999999999955c9.9 5.7 22.1 5.7 32-0.1l176.8-102.5c9.5-5.4 20.1-8.1 30.7-8.1 10.4 0 20.9 2.6 30.3 7.8l3 1.7L992.4 45c20.4 11.3 33 32.8 33 56.1l-0.3 226.9zM705.6 516.2c0-12.2-6.8-23.3-17.7-28.7l-131.4-65.7c-5.3-2.7-11.6 1.2-11.6 7.2V591.9c0 29.1 17.7 55.2 44.7 66L705 704l0.6-187.8zM257.5 275l-0.2 0.1-149.1 75 149.1 74.4 16.8 8.4c9.2 4.6 20 4.5 29.1-0.3l18.1-9.4 129.8-64.3c5.8-2.9 6-11.1 0.2-14.2l-130-69.8c-20-10.1-43.7-10-63.8 0.1z m205.7-203.9l-141.8-70.6-0.8 163.6c-0.1 27 15.1 51.8 39.2 63.9l108.8 54.5c5.3 2.7 11.6-1.2 11.6-7.1l0.8-175.6c0-12.1-6.9-23.2-17.8-28.7zM488 713.4L385 752l128 48 128-48-103-38.6c-16.1-6.1-33.9-6.1-50 0z m215.7-439.2l-129.2 70.5c-5.7 3.1-5.5 11.3 0.3 14.2l131 65.3 16.1 8.4c9.1 4.8 20 4.9 29.1 0.3l18.7-9.3L916.9 350l-146.2-76.5c-21.1-10.9-46.2-10.7-67 0.7zM961 115.29999999999995c0-11.8-6.5-22.7-17-28.3l-174.3-92.2-0.6 169.1c-0.1 27 15.1 51.8 39.3 63.8L961 304v-188.7z"  horiz-adv-x="1025" />

    
    <glyph glyph-name="shuaxin2" unicode="&#59056;" d="M512-23.552c-224.768 0-407.552 182.784-407.552 407.552 0 8.704 0.512 17.408 1.024 26.112l71.68-4.608c-0.512-7.168-0.512-14.336-0.512-21.504 0-185.344 150.528-335.872 335.872-335.872 86.528 0 168.448 32.768 230.912 92.16l49.152-52.224c-76.288-72.192-175.616-111.616-280.576-111.616zM919.552 384h-71.68c0 11.776-0.512 23.552-2.048 35.328-17.92 171.52-161.28 300.544-334.336 300.544-67.584 0-132.096-19.968-187.904-57.344L284.16 721.92C351.232 767.488 430.08 791.552 512 791.552c209.408 0 384-156.672 405.504-365.056 1.536-13.824 2.048-28.16 2.048-42.496zM140.288 605.184L28.16 404.48c-3.072-5.12 1.024-11.776 6.656-11.776h223.744c6.144 0 9.728 6.144 6.656 11.776L153.6 605.184c-3.072 5.632-10.752 5.632-13.312 0zM870.4 220.16l-112.128 200.704c-3.072 5.12 1.024 11.776 6.656 11.776h223.744c6.144 0 9.728-6.144 6.656-11.776L883.712 220.16c-2.56-5.12-10.24-5.12-13.312 0zM270.336 693.76a35.84 35.84 0 1 1 71.68 0 35.84 35.84 0 1 1-71.68 0ZM728.576 111.104a35.84 35.84 0 1 1 71.68 0 35.84 35.84 0 1 1-71.68 0Z"  horiz-adv-x="1024" />

    
    <glyph glyph-name="shuaxin3" unicode="&#59060;" d="M187.456 470.976a336 336 0 0 1 368.384-420.224 48 48 0 0 0 12.544-95.168 432 432 0 0 0-473.664 540.16l-57.28 15.36a12.8 12.8 0 0 0-6.272 20.928l159.168 179.456a12.8 12.8 0 0 0 22.144-5.888l48.064-235.072a12.8 12.8 0 0 0-15.808-14.912l-57.28 15.36zM836.48 296.96a336 336 0 0 1-368.384 420.224 48 48 0 1 0-12.544 95.168 432 432 0 0 0 473.664-540.16l57.28-15.36a12.8 12.8 0 0 0 6.272-20.928l-159.168-179.456a12.8 12.8 0 0 0-22.144 5.888l-48.064 235.072a12.8 12.8 0 0 0 15.808 14.912l57.28-15.36z"  horiz-adv-x="1024" />

    
    <glyph glyph-name="113fangxiang_xiangyou" unicode="&#59045;" d="M303.593 839.854c8.889 0 17.777-3.406 24.524-10.22l416.225-417.16c13.63-13.738 13.597-35.906-0.07-49.605L328.048-54.304c-14.694-14.75-39.442-13.425-52.334 3.994-10.419 14.076-7.23 34.124 5.14 46.521L671.09 387.336a0.622 0.622 0 0 1 0.001 0.878l-389.75 390.489c-14.796 14.915-15.705 40.458 0.69 53.595a34.441 34.441 0 0 0 21.562 7.556z"  horiz-adv-x="1024" />

    
    <glyph glyph-name="112fangxiang_xiangshang" unicode="&#59046;" d="M964.154 179.295c0 8.888-3.407 17.777-10.22 24.523l-417.16 416.224c-13.738 13.63-35.907 13.598-49.606-0.07L69.995 203.75c-14.75-14.695-13.426-39.443 3.994-52.335 14.076-10.418 34.123-7.229 46.52 5.14l391.126 390.236a0.622 0.622 0 0 0 0.878 0l390.49-389.75c14.915-14.796 40.458-15.705 53.595 0.69a34.442 34.442 0 0 1 7.556 21.563z"  horiz-adv-x="1024" />

    
    <glyph glyph-name="115fangxiang_xiangzuo" unicode="&#59049;" d="M720.406-64.453c-8.889 0-17.777 3.407-24.524 10.221L279.658 362.926c-13.63 13.739-13.597 35.907 0.07 49.606L695.952 829.705c14.694 14.75 39.442 13.426 52.334-3.994 10.419-14.075 7.23-34.123-5.14-46.52L352.91 388.066a0.622 0.622 0 0 1-0.001-0.878l389.75-390.49c14.796-14.916 15.705-40.458-0.69-53.596-6.287-5.036-13.93-7.555-21.562-7.555z"  horiz-adv-x="1024" />

    
    <glyph glyph-name="114fangxiang_xiangxia" unicode="&#59051;" d="M964.154 596.107c0-8.889-3.407-17.777-10.22-24.524L536.773 155.36c-13.738-13.63-35.907-13.598-49.606 0.07L69.995 571.65c-14.75 14.695-13.426 39.443 3.994 52.336 14.076 10.418 34.123 7.228 46.52-5.14L511.636 228.61a0.623 0.623 0 0 1 0.878-0.001l390.49 389.75c14.915 14.797 40.458 15.705 53.595-0.69a34.447 34.447 0 0 0 7.556-21.562z"  horiz-adv-x="1024" />

    
    <glyph glyph-name="shuaxin" unicode="&#59052;" d="M513.3 794.1c-190.7 0-348.6-138.8-379.2-320.8H0l160.4-192.5 160.4 192.5H199C228.8 619.6 358.4 730 513.3 730c176.9 0 320.8-143.9 320.8-320.8S690.2 88.3 513.3 88.3c-78 0-148.7 29.1-204.4 75.6l-42.1-50.5c66.8-55.7 152.7-89.3 246.4-89.3 212.6 0 385 172.4 385 385s-172.2 385-384.9 385z"  horiz-adv-x="1024" />

    
    <glyph glyph-name="icon-" unicode="&#59053;" d="M591.36 430.08c-10.24 0-20.48 7.68-23.04 17.92-5.12 12.8 2.56 28.16 15.36 33.28l176.64 58.88L698.88 716.8c-5.12 12.8 2.56 28.16 15.36 33.28 12.8 5.12 28.16-2.56 33.28-15.36l69.12-202.24c2.56-7.68 2.56-12.8-2.56-20.48-2.56-5.12-7.68-10.24-15.36-12.8l-202.24-69.12h-5.12zM537.6-25.6c-51.2 0-99.84 10.24-148.48 33.28-166.4 81.92-235.52 284.16-153.6 450.56 81.92 166.4 284.16 235.52 450.56 153.6 40.96-20.48 76.8-48.64 104.96-81.92 10.24-10.24 7.68-28.16-2.56-35.84-10.24-10.24-28.16-7.68-35.84 2.56-25.6 28.16-56.32 51.2-89.6 69.12-140.8 69.12-312.32 12.8-384-130.56-69.12-140.8-12.8-312.32 130.56-384 125.44-61.44 281.6-23.04 360.96 92.16 7.68 12.8 23.04 15.36 35.84 5.12 12.8-7.68 15.36-23.04 5.12-35.84C752.64 25.6 647.68-25.6 537.6-25.6z"  horiz-adv-x="1024" />

    
    <glyph glyph-name="shuaxin1" unicode="&#59054;" d="M738.27 610.27A317.91 317.91 0 0 1 512 704v64l-128-96 128-96v64a256 256 0 1 0-256-256h-64a320 320 0 1 1 546.27 226.27z"  horiz-adv-x="1024" />

    
    <glyph glyph-name="wenhao" unicode="&#59055;" d="M511.514 832.106c-114.532 0-229.062-43.51-316.72-131.168-174.677-174.676-174.677-458.764 0-633.44 87.658-87.659 202.188-131.168 316.72-131.168s229.063 43.51 316.72 131.168c174.677 174.676 174.677 458.764 0 633.44-87.657 87.659-202.189 131.168-316.72 131.168z m0-44.79c52.467 0 103.654-10.236 151.642-29.432 49.907-20.475 94.695-49.907 133.086-88.937 39.03-38.39 68.463-83.18 88.937-133.086 19.195-47.988 29.433-99.175 29.433-151.642s-10.238-103.654-29.433-151.642c-20.474-49.907-49.907-94.695-88.937-133.086-38.39-39.03-83.18-68.463-133.086-88.937-47.988-19.196-99.175-29.433-151.642-29.433s-103.654 10.237-151.642 29.433c-49.907 20.475-94.696 49.907-133.086 88.937-39.03 38.39-68.463 83.18-88.937 133.086-19.196 47.988-29.433 99.175-29.433 151.642s10.237 103.654 29.433 151.642c20.475 49.907 49.907 94.695 88.937 133.086 38.39 39.03 83.18 68.463 133.086 88.937 47.988 19.196 99.175 29.433 151.642 29.433zM511.514 221.7c-18.556 0-34.551-15.356-34.551-34.551 0-18.556 15.996-33.912 34.55-33.912 19.196 0 34.552 15.356 34.552 33.912 0 19.194-15.356 34.55-34.551 34.55z m0.64 393.5c-42.23 0-76.14-10.877-101.734-33.91-25.593-22.395-41.589-55.027-46.707-97.896l58.225-7.039c4.479 31.992 15.356 55.666 31.352 70.382 15.996 15.356 35.83 22.394 59.505 22.394 24.953 0 46.068-8.317 63.344-24.953 16.636-15.996 24.953-35.191 24.953-57.585 0-11.518-2.56-23.035-8.317-33.272-5.758-10.237-18.556-23.674-37.751-40.95-19.835-17.275-33.272-30.073-40.95-39.03-9.597-12.157-17.275-24.314-21.754-36.47-6.399-15.997-9.598-35.192-9.598-56.946l0.64-17.276h53.746c0.64 22.394 1.92 39.03 4.479 48.628 3.199 10.237 7.038 19.195 12.796 26.873 5.758 7.678 17.276 19.834 35.831 35.83 26.873 24.315 45.429 44.79 55.027 61.426 8.958 16.636 14.076 35.191 14.076 55.026 0 34.55-13.437 63.984-40.31 88.298-26.233 24.314-62.064 36.47-106.852 36.47z"  horiz-adv-x="1024" />

    
    <glyph glyph-name="question-circle" unicode="&#60228;" d="M512 832C264.6 832 64 631.4 64 384s200.6-448 448-448 448 200.6 448 448S759.4 832 512 832z m0-820c-205.4 0-372 166.6-372 372s166.6 372 372 372 372-166.6 372-372-166.6-372-372-372zM623.6 579.3C593.6 605.6 554 620 512 620s-81.6-14.5-111.6-40.7C369.2 552 352 515.3 352 476v-7.6c0-4.4 3.6-8 8-8h48c4.4 0 8 3.6 8 8V476c0 44.1 43.1 80 96 80s96-35.9 96-80c0-31.1-22-59.6-56.1-72.7-21.2-8.1-39.2-22.3-52.1-40.9-13.1-19-19.9-41.8-19.9-64.9V276c0-4.4 3.6-8 8-8h48c4.4 0 8 3.6 8 8v22.7c0 19.7 12.4 37.7 30.9 44.8 59 22.7 97.1 74.7 97.1 132.5 0.1 39.3-17.1 76-48.3 103.3zM472 164a40 40 0 1 1 80 0 40 40 0 1 1-80 0z"  horiz-adv-x="1024" />

    
    <glyph glyph-name="bangzhuzhongxindaohang-tongyongcankao2" unicode="&#59047;" d="M782.97664 765.888a108.544 108.544 0 0 0 108.48-108.608v-676.928A108.544 108.544 0 0 0 783.04064-128H108.48064A108.352 108.352 0 0 0 0.00064-19.328V657.088a108.544 108.544 0 0 0 108.288 108.8zM896.25664 896A127.808 127.808 0 0 0 1024.00064 768.128v-735.744a30.144 30.144 0 0 0-30.08-30.08 30.144 30.144 0 0 0-30.08 30.144V768.128A67.52 67.52 0 0 1 896.12864 835.648H162.68864a30.208 30.208 0 0 0 0 60.352z m-245.76-830.72h-397.44a30.144 30.144 0 1 1 0-60.288h397.568a30.208 30.208 0 1 1-0.064 60.352zM445.69664 613.44a39.552 39.552 0 0 1-20.288-5.376 34.176 34.176 0 0 1-14.08-16.32l-184.32-411.072a29.184 29.184 0 0 1-3.2-13.056 26.88 26.88 0 0 1 9.856-20.928 32.512 32.512 0 0 1 22.08-8.32 28.736 28.736 0 0 1 28.096 19.072l44.8 101.12h235.584l44.224-100.992a28.8 28.8 0 0 1 28.032-19.2c7.68 0 15.168 2.88 20.992 7.936a26.368 26.368 0 0 1 9.472 20.48 30.656 30.656 0 0 1-3.136 13.696l-184.32 411.328a36.224 36.224 0 0 1-33.792 21.632zM446.08064 526.08L539.26464 314.88H353.28064L446.08064 526.144z"  horiz-adv-x="1024" />

    
    <glyph glyph-name="bangzhuzhongxindaohang-chanpinwendang2" unicode="&#59048;" d="M727.296 895.872l223.872-256.64v-510.848c0-65.856-60.288-127.936-127.936-127.936h-32c0-65.792-60.224-127.936-127.872-127.936H183.616c-67.648 0-127.936 62.08-127.936 127.936V640.064c0 65.792 55.296 127.04 122.944 127.04L215.68 768C215.616 833.792 275.84 895.872 343.552 895.872h383.744zM215.68 704l-35.072-1.024c-33.536 0-60.928-30.4-60.928-62.912v-639.616c0-32.576 30.4-64 64-64h479.68c33.472 0 63.936 31.36 64 64H343.616c-67.712 0-128 62.08-128 127.936V704z m511.616-416.128H439.488a32 32 0 0 1 0-64h287.808a32 32 0 0 1 0 64z m0 159.744H439.488a32 32 0 0 1 0-64h287.808a32 32 0 0 1 0 64z m0 383.36v-95.808c0-33.28 29.888-95.104 64-95.104h95.872l-159.872 190.912z"  horiz-adv-x="1024" />

    
    <glyph glyph-name="small_bell" unicode="&#59040;" d="M559.786667 827.733333c-34.133333 20.48-68.266667 20.48-102.4 0L225.28 622.933333H102.4C47.786667 622.933333 0 575.146667 0 520.533333v-273.066666c0-54.613333 47.786667-102.4 102.4-102.4h122.88l232.106667-204.8c13.653333-6.826667 34.133333-13.653333 54.613333-13.653334 20.48 0 34.133333 6.826667 47.786667 13.653334 34.133333 20.48 54.613333 54.613333 54.613333 88.746666V738.986667c0 40.96-20.48 75.093333-54.613333 88.746666zM68.266667 247.466667v273.066666c0 20.48 13.653333 34.133333 34.133333 34.133334H204.8v-341.333334H102.4c-20.48 0-34.133333 13.653333-34.133333 34.133334z m477.866666-218.453334c0-20.48-13.653333-27.306667-20.48-27.306666-6.826667 0-20.48-6.826667-27.306666 0L273.066667 192.853333V575.146667l225.28 197.973333c13.653333 6.826667 27.306667 0 34.133333 0 0-6.826667 13.653333-13.653333 13.653333-34.133333v-709.973334zM785.066667 622.933333c6.826667 0 20.48 0 27.306666 6.826667l136.533334 136.533333c13.653333 13.653333 13.653333 34.133333 0 47.786667-13.653333 13.653333-34.133333 13.653333-47.786667 0l-136.533333-136.533333c-13.653333-13.653333-13.653333-34.133333 0-47.786667 0-6.826667 13.653333-6.826667 20.48-6.826667z m204.8-204.8h-204.8c-20.48 0-34.133333-13.653333-34.133334-34.133333s13.653333-34.133333 34.133334-34.133333h204.8c20.48 0 34.133333 13.653333 34.133333 34.133333s-13.653333 34.133333-34.133333 34.133333z m-177.493334-279.893333c-13.653333 13.653333-34.133333 13.653333-47.786666 0-13.653333-13.653333-13.653333-34.133333 0-47.786667l136.533333-136.533333c6.826667-6.826667 13.653333-6.826667 27.306667-6.826667s20.48 0 27.306666 6.826667c13.653333 13.653333 13.653333 34.133333 0 47.786667l-143.36 136.533333zM68.266667 247.466667v273.066666c0 20.48 13.653333 34.133333 34.133333 34.133334H204.8v-341.333334H102.4c-20.48 0-34.133333 13.653333-34.133333 34.133334zM546.133333 29.013333c0-20.48-13.653333-27.306667-20.48-27.306666-6.826667 0-20.48-6.826667-27.306666 0L273.066667 192.853333V575.146667l225.28 197.973333c13.653333 6.826667 27.306667 0 34.133333 0 0-6.826667 13.653333-13.653333 13.653333-34.133333v-709.973334z"  horiz-adv-x="1024" />

    
    <glyph glyph-name="tips" unicode="&#59041;" d="M526.189714 896h1.170286c137.069714-2.486857 253.878857-53.394286 349.037714-151.917714C970.898286 646.217143 1020.342857 520.777143 1024 368.420571c-3.730286-137.508571-53.101714-254.025143-148.041143-348.525714-95.085714-94.646857-211.602286-144.091429-349.915428-147.894857-151.04 3.730286-276.041143 52.809143-374.125715 147.602286C53.686857 114.468571 2.925714 231.131429 0 369.810286c2.925714 150.893714 53.467429 276.260571 151.405714 374.637714C249.197714 842.532571 374.857143 893.074286 526.262857 896z m0.585143-60.196571l-20.699428-0.731429c-126.537143-6.729143-230.107429-50.980571-311.954286-133.12C107.52 614.838857 62.902857 504.393143 60.269714 369.883429c2.56-121.563429 46.665143-223.085714 133.485715-306.980572 86.893714-83.894857 197.412571-127.268571 332.214857-130.706286 121.417143 3.364571 223.378286 46.665143 307.565714 130.413715 83.748571 83.382857 126.902857 185.197714 130.194286 305.883428-3.291429 136.045714-46.957714 247.149714-130.633143 333.750857C748.982857 789.284571 647.314286 833.536 526.774857 835.803429zM545.938286 274.285714v-12.434285h-78.262857V274.285714c0 27.062857 4.388571 50.468571 14.628571 69.485715 9.508571 20.48 37.302857 50.468571 82.651429 90.697142l12.434285 13.897143c13.165714 16.822857 20.48 34.377143 20.48 53.394286 0 25.6-7.314286 45.348571-21.211428 59.977143-14.628571 14.628571-35.84 21.942857-62.171429 21.942857-32.914286 0-57.051429-10.24-71.68-31.451429-13.165714-17.554286-19.748571-42.422857-19.748571-74.605714h-76.8c0 53.394286 15.36 95.085714 46.08 125.805714 30.72 31.451429 73.142857 46.811429 127.268571 46.811429 46.811429 0 84.845714-12.434286 114.102857-38.765714 29.257143-25.6 43.885714-60.708571 43.885715-104.594286 0-35.84-9.508571-65.828571-27.794286-89.234286-6.582857-8.045714-27.062857-27.062857-61.44-57.051428-13.897143-11.702857-24.137143-24.868571-30.72-38.034286-8.045714-14.628571-11.702857-30.72-11.702857-48.274286z m-1.462857-141.897143a54.857143 54.857143 0 0 0-38.034286-14.628571 52.443429 52.443429 0 0 0-53.394286 52.662857c0 15.36 5.12 27.794286 15.36 37.302857 10.24 10.24 23.405714 14.628571 38.034286 14.628572 15.36 0 28.525714-4.388571 38.765714-14.628572 10.24-9.508571 15.36-21.942857 15.36-37.302857 0-15.36-5.851429-27.794286-16.091428-38.034286z"  horiz-adv-x="1024" />

    
    <glyph glyph-name="sousuo4" unicode="&#59043;" d="M409.6 839.133867a352.733867 352.733867 0 0 0 274.432-574.395734l308.0192-308.0192a45.533867 45.533867 0 0 0-60.074667-68.130133l-4.3008 3.754667-309.589333 309.521066A352.6656 352.6656 0 1 0 409.6 839.133867z m0-68.266667a284.4672 284.4672 0 1 1 0-568.9344 284.4672 284.4672 0 0 1 0 568.866133z"  horiz-adv-x="1024" />

    
    <glyph glyph-name="support" unicode="&#59044;" d="M236.982857-76.580571s-6.070857-14.848-25.014857-14.848h446.756571c-14.774857 0-20.48 14.848-20.48 14.848v27.574857H236.982857v-27.574857zM103.277714 488.009143c0.512-101.376 52.662857-198.656 91.648-271.36 23.405714-43.666286 42.057143-78.482286 42.057143-100.059429v-165.595428h401.261714v135.826285h59.465143s61.44 1.462857 89.088 29.769143c29.622857 30.281143 29.769143 59.392 29.769143 59.392V294.838857s103.643429 41.398857 103.936 59.465143c0.219429 7.899429-19.456 43.154286-43.008 85.577143-29.257143 52.662857-64.804571 116.443429-75.849143 152.137143-18.797714 60.781714-77.677714 209.188571-296.96 221.622857v-284.16c64.365714-14.043429 114.907429-71.972571 114.907429-139.702857 0-29.988571-9.508571-57.782857-25.6-80.603429l68.388571-48.64a44.544 44.544 0 1 0-27.428571-35.181714l-72.557714 51.565714a141.238857 141.238857 0 0 0-84.114286-27.867428c-78.116571 0-137.289143 57.344-137.289143 135.094857 0 72.630857 48.786286 139.264 118.857143 147.602285V814.518857c-167.497143-8.118857-357.449143-151.698286-356.571429-326.509714zM574.829714 389.705143a96.548571 96.548571 0 0 0-193.097143 0 96.548571 96.548571 0 1 0 193.097143 0zM914.651429 460.873143c-23.552 45.714286-50.322286 97.645714-68.534858 145.993143C807.350857 709.851429 737.426286 847.872 504.685714 858.697143v-45.202286c219.282286-12.434286 278.162286-160.768 296.96-221.622857 11.044571-35.620571 46.518857-99.401143 75.849143-152.137143 23.552-42.349714 43.154286-77.531429 43.008-85.577143-0.292571-17.993143-103.936-59.392-103.936-59.392v-118.857143s-0.146286-29.110857-29.769143-59.392c-27.648-28.379429-89.088-29.696-89.088-29.696h-59.465143V-76.580571s5.705143-14.848 20.48-14.848c21.504 0 24.137143 14.848 24.137143 14.848v118.857142s61.659429-6.509714 118.784 29.696c60.854857 38.619429 59.465143 104.009143 59.465143 104.009143V265.142857c29.403429 9.508571 99.913143 39.058286 103.862857 74.313143 2.267429 19.309714-21.650286 65.755429-50.322285 121.417143zM459.849143 814.518857c-167.497143-8.118857-357.449143-151.698286-356.571429-326.509714 0.512-101.376 52.662857-198.656 91.648-271.36 23.405714-43.666286 42.057143-78.482286 42.057143-100.059429v-193.170285s-6.070857-14.848-25.014857-14.848c-13.897143 0-19.529143 14.848-19.529143 14.848v193.097142c0.146286 14.774857-13.897143 37.888-32.841143 69.266286-39.570286 65.316571-100.937143 166.473143-100.937143 302.226286 0 145.773714 153.161143 362.788571 401.188572 371.2v-44.690286z"  horiz-adv-x="1024" />

    
    <glyph glyph-name="068zhanghuanquan" unicode="&#59034;" d="M910.448316 755.384425l0-455.302697c0-27.316136-6.67298-54.452169-19.920702-81.486896-13.265118-27.01426-30.673603-53.205782-52.220339-78.612429-21.487384-25.406646-46.109154-49.406247-73.707722-72.079642-27.637454-22.673395-55.616692-42.87346-84.039022-60.603263-28.440749-17.749246-56.08025-32.521694-82.893942-44.221154-26.794249-11.738345-50.290383-19.798928-70.511937-24.159236l-9.547447-1.629103-8.804527 1.629103c-20.702508 4.361331-44.762483 12.421914-72.119551 24.159236-27.376511 11.69946-55.797817 26.471908-85.304851 44.221154-29.467125 17.72878-58.411341 37.928844-86.833671 60.603263-28.421306 22.672372-53.788044 46.671972-76.119655 72.079642-22.331611 25.406646-40.401152 51.598168-54.17076 78.612429-13.749142 27.034726-20.702508 54.17076-20.702508 81.486896L113.551684 755.384425l32.682353 4.925173L512.843716 830.709995l373.764636-70.40142L910.448316 755.384425 910.448316 755.384425 910.448316 755.384425zM512.904091 764.840798l-4.420683 0.904603-314.611397-54.963823 0-287.304472 319.03208 0L512.904091 764.840798 512.904091 764.840798 512.904091 764.840798zM830.146409 423.477107 512.904091 423.477107l0-408.900877c20.422122 4.804423 42.632983 12.201903 66.592674 22.050202 23.940249 9.889231 47.617507 21.588691 70.954005 35.074843 23.336498 13.547551 45.889143 28.54308 67.475787 45.045939 21.60711 16.522302 40.74396 34.251082 57.426921 53.16485s29.92966 38.572504 39.898709 58.993602c9.909697 20.422122 14.894222 41.12463 14.894222 62.170968L830.146409 423.477107 830.146409 423.477107 830.146409 423.477107zM830.146409 423.477107"  horiz-adv-x="1024" />

    
    <glyph glyph-name="zhanghuzichan" unicode="&#59036;" d="M580.283733 179.2C541.269333 179.2 512.017067 207.2576 512.017067 247.466667L512.017067 315.733333C512.017067 355.959467 541.269333 384 580.283733 384L1024.017067 384 1024.017067 179.2 580.283733 179.2ZM648.5504 349.866667C619.298133 349.866667 580.283733 311.773867 580.283733 281.6 580.283733 251.4432 619.298133 213.333333 648.5504 213.333333 677.802667 213.333333 716.817067 251.4432 716.817067 281.6 716.817067 311.773867 677.802667 349.866667 648.5504 349.866667ZM477.883733 315.733333 477.883733 247.466667C477.883733 187.153067 521.7792 145.066667 580.283733 145.066667L955.7504 145.066667 955.7504 8.533333C955.7504-51.780267 911.854933-93.866667 853.3504-93.866667L102.417067-93.866667C43.912533-93.866667 0.017067-51.780267 0.017067 8.533333L0 679.8336C0 740.164267 43.912533 793.6 102.417067 793.6L409.617067 793.6 341.3504 725.333333 102.417067 725.333333C73.1648 725.333333 35.328 723.677867 35.328 693.521067 35.328 663.3472 39.031467 657.066667 68.283733 657.066667L955.7504 657.066667 955.7504 418.133333 580.283733 418.133333C521.7792 418.133333 477.883733 376.064 477.883733 315.733333ZM375.483733 691.2 697.429333 861.883733 750.9504 691.2 375.483733 691.2ZM785.083733 793.6 853.3504 793.6C884.258133 793.6 902.2464 747.1104 921.617067 725.333333L785.083733 725.333333 785.083733 793.6Z"  horiz-adv-x="1025" />

    
    <glyph glyph-name="zhanghuguanli2" unicode="&#59037;" d="M734.9 699.7H447.4l90.9 90.5c29.3 29 76.5 29 105.7 0l90.9-90.5zM736 383.6h224V551c0 41.1-33.4 74.4-74.7 74.4H138.7C97.4 625.3 64 592 64 551v-520.6c0-41.1 33.4-74.4 74.7-74.4h746.7c41.2 0 74.7 33.3 74.7 74.4V197.7H736c-51.3 0-93.3 41.8-93.3 93 0 51.1 42 92.9 93.3 92.9zM689.3 291a46.7 46.5 0 1 1 93.4 0 46.7 46.5 0 1 1-93.4 0Z"  horiz-adv-x="1024" />

    
    <glyph glyph-name="zhanghuanquan" unicode="&#59057;" d="M512 875.136l392.448-79.36a42.666667 42.666667 0 0 0 34.218667-41.813333v-577.578667a42.666667 42.666667 0 0 0-20.565334-36.48L512-106.24l-405.973333 243.84A42.666667 42.666667 0 0 0 85.333333 174.208V753.92a42.666667 42.666667 0 0 0 34.218667 41.813333L512 875.178667z m-0.042667-86.997333L170.666667 719.104v-520.746667l341.12-204.842666L853.333333 200.490667V719.104l-341.376 69.034667zM512 682.666667a170.666667 170.666667 0 0 0 119.466667-292.565334A212.992 212.992 0 0 0 725.333333 213.333333a42.666667 42.666667 0 0 0-85.034666-4.992L640 213.333333a128 128 0 0 1-256 0 42.666667 42.666667 0 0 0-85.333333 0c0 73.557333 37.248 138.453333 93.909333 176.810667A170.666667 170.666667 0 0 0 512 682.666667z m0-85.333334a85.333333 85.333333 0 1 1 0-170.666666 85.333333 85.333333 0 0 1 0 170.666666z"  horiz-adv-x="1024" />

    
    <glyph glyph-name="zhanghuguanli49" unicode="&#59186;" d="M833.75-15.25l136.25 170L900 266l11.25 51.25 110 67.5-48.75 213.75-128.75 15-32.5 41.25L825 784.75 627.5 881l-91.25-91.25-52.5 0-91.25 92.5L195 788.5l15-128.75-32.5-41.25L48.75 604.75 1.25 391l110-70L122.5 271l-68.75-108.75 136.25-172.5 122.5 42.5 47.5-23.75 42.5-122.5L622.5-116.5l42.5 122.5 47.5 22.5L833.75-15.25zM566.25-37.75l-107.5 1.25-35 101.25-106.25 51.25-100-35L150 166l56.25 90L180 371l-90 57.5L112.5 532.25l106.25 11.25 72.5 91.25-12.5 106.25 96.25 46.25 75-76.25 117.5-1.25 75 75 96.25-47.5-11.25-106.25 73.75-92.5 106.25-12.5 23.75-105-90-56.25-26.25-115 57.5-90-66.25-83.75-100 36.25-106.25-50L566.25-37.75zM662.5 504.75c-67.5 85-191.25 100-275 32.5-83.75-67.5-97.5-190-30-275s191.25-100 275-32.5C717.5 296 730 419.75 662.5 504.75zM415 307.25c-42.5 53.75-33.75 131.25 18.75 172.5 52.5 41.25 130 32.5 172.5-20 42.5-53.75 33.75-131.25-18.75-172.5C533.75 244.75 456.25 253.5 415 307.25z"  horiz-adv-x="1024" />

    
    <glyph glyph-name="zhanghuguanli" unicode="&#59033;" d="M742.286873 381.024226c35.81367 53.740972 57.042157 120.378671 57.042157 192.471616 0 177.646979-128.892579 322.157257-287.318798 322.157257S224.691435 751.143844 224.691435 573.495842c0-72.089875 21.227464-138.725528 57.038064-192.464453-76.648704-28.851095-131.329071-102.921068-131.329071-189.535751l0-116.730585c0-111.605867 90.811262-202.418152 202.439642-202.418152l318.319859 0c111.627357 0 202.439642 90.811262 202.439642 202.418152L873.599571 191.495638C873.598548 278.104181 818.927391 352.169037 742.286873 381.024226zM512.010233 830.335465c122.407887 0 222.001163-115.209952 222.001163-256.839623s-99.593276-256.871345-222.001163-256.871345S290.010093 431.867194 290.010093 573.495842 389.602346 830.335465 512.010233 830.335465zM808.280914 74.765053c0-75.587536-61.511959-137.099495-137.120984-137.099495L352.84007-62.334441c-75.609025 0-137.120984 61.511959-137.120984 137.099495L215.719086 191.495638c0 67.098187 48.446385 123.088386 112.196315 134.844128 49.894364-46.810119 114.107851-75.032904 184.095855-75.032904 69.985958 0 134.198421 28.221762 184.091762 75.029834 63.74072-11.762905 112.177895-67.747987 112.177895-134.841058L808.280914 74.765053z"  horiz-adv-x="1024" />

    
    <glyph glyph-name="zhanghuguanli1" unicode="&#59366;" d="M427.008-34.816c-3.072 0-6.144 0.512-9.216 1.024-46.592 10.752-91.136 29.184-131.584 54.784-9.728 6.144-16.384 16.384-18.432 27.648-2.048 11.264 1.024 23.04 8.192 32.256 14.848 18.432 13.312 44.544-3.584 61.44-16.384 16.896-43.008 17.92-61.44 3.584-9.216-7.168-20.992-10.24-32.256-8.192-11.264 2.048-21.504 8.704-27.648 18.432-25.6 40.448-44.032 84.992-54.784 131.584-2.56 11.264 0 23.552 6.656 32.768s17.408 15.872 28.672 16.896c23.04 2.56 40.96 22.016 40.96 45.568s-17.408 43.008-40.96 45.568c-11.776 1.536-22.016 7.68-28.672 16.896-6.656 9.728-9.216 21.504-6.656 32.768 10.752 46.592 29.184 91.136 54.784 131.584 6.144 9.728 16.384 16.384 27.648 18.432 11.264 2.048 23.04-1.024 32.256-8.192 18.432-14.848 44.544-13.312 61.44 3.584 16.896 16.384 17.92 43.008 3.584 61.44-7.168 9.216-10.24 20.992-8.192 32.256 2.048 11.264 8.704 21.504 18.432 27.648 40.448 25.6 84.992 44.032 131.584 54.784 11.264 2.56 23.552 0 32.768-6.656 9.728-6.656 15.872-17.408 16.896-28.672 2.56-23.04 22.016-40.96 45.568-40.96s43.008 17.408 45.568 40.96c1.536 11.776 7.68 22.016 16.896 28.672 9.728 6.656 21.504 9.216 32.768 6.656 46.592-10.752 91.136-29.184 131.584-54.784 9.728-6.144 16.384-16.384 18.432-27.648 2.048-11.264-1.024-23.04-8.192-32.256-14.848-18.432-13.312-44.544 3.584-61.44 15.872-15.872 15.872-41.984 0-57.856s-41.984-15.872-57.856 0c-34.304 34.304-45.568 83.968-31.744 128-12.288 6.144-25.088 11.264-37.888 15.872-21.504-40.96-64.512-68.096-113.152-68.096-48.64 0-91.648 27.136-113.152 68.096-12.8-4.608-25.6-9.728-37.888-15.872 13.824-44.032 2.56-93.696-31.744-128-34.304-34.304-83.968-45.568-128-31.744-6.144-12.288-11.264-25.088-15.872-37.888 40.96-21.504 68.096-64.512 68.096-113.152 0-48.64-27.136-91.648-68.096-113.152 4.608-12.8 9.728-25.6 15.872-37.888 44.032 13.824 93.696 2.56 128-31.744 34.304-34.304 45.568-83.968 31.744-128 12.288-6.144 25.088-11.264 37.888-15.872 21.504 40.96 64.512 68.096 113.152 68.096 48.64 0 91.648-27.136 113.152-68.096 12.8 4.608 25.6 9.728 37.888 15.872-13.824 44.032-2.56 93.696 31.744 128 34.304 34.304 83.968 45.568 128 31.744 6.144 12.288 11.264 25.088 15.872 37.888-40.96 21.504-68.096 64.512-68.096 113.152 0 48.64 27.136 91.648 68.096 113.152-4.096 11.264-8.192 22.528-13.312 33.28-9.728 20.48-0.512 45.056 19.968 54.272 20.48 9.728 45.056 1.024 54.272-19.968 12.8-27.136 22.528-56.32 29.184-85.504 2.56-11.264 0-23.552-6.656-32.768-6.656-9.728-17.408-15.872-28.672-16.896-23.04-2.56-40.96-22.016-40.96-45.568s17.408-43.008 40.96-45.568c11.776-1.536 22.016-7.68 28.672-16.896 6.656-9.728 9.216-21.504 6.656-32.768-10.752-46.592-29.184-91.136-54.784-131.584-6.144-9.728-16.384-16.384-27.648-18.432-11.264-2.048-23.04 1.024-32.256 8.192-18.432 14.848-44.544 13.312-61.44-3.584-16.896-16.384-17.92-43.008-3.584-61.44 7.168-9.216 10.24-20.992 8.192-32.256-2.048-11.264-8.704-21.504-18.432-27.648-40.448-25.6-84.992-44.032-131.584-54.784-11.264-2.56-23.552 0-32.768 6.656-9.728 6.656-15.872 17.408-16.896 28.672-2.56 23.04-22.016 40.96-45.568 40.96s-43.008-17.408-45.568-40.96c-1.536-11.776-7.68-22.016-16.896-28.672-7.168-5.12-15.36-7.68-23.552-7.68zM513.536 219.136c-90.112 0-163.84 73.728-163.84 163.84s73.728 163.84 163.84 163.84 163.84-73.728 163.84-163.84c0-90.624-73.728-163.84-163.84-163.84z m0 245.76c-45.056 0-81.92-36.864-81.92-81.92s36.864-81.92 81.92-81.92 81.92 36.864 81.92 81.92-36.864 81.92-81.92 81.92z"  horiz-adv-x="1024" />

    
    <glyph glyph-name="liebiaoye-fuxuankuang-weixuanze" unicode="&#59058;" d="M995.555556-99.555556H28.444444V867.555556h967.111112v-967.111112z m-910.222223 56.888889h853.333334v853.333334h-853.333334v-853.333334z"  horiz-adv-x="1024" />

    
    <glyph glyph-name="liebiaoye-fuxuankuang-yixuanze" unicode="&#59059;" d="M995.555556-99.555556H28.444444V867.555556h967.111112v-967.111112z m-910.222223 56.888889h853.333334v853.333334h-853.333334v-853.333334zM455.111111 173.511111L204.8 418.133333l45.511111 45.511111L455.111111 253.155556l318.577778 324.266666 45.511111-45.511111z"  horiz-adv-x="1024" />

    
    <glyph glyph-name="liuliangyunpingtaitubiao02" unicode="&#59025;" d="M229.12 332.8l0-301.696 178.56 0L407.68 184.32c0 32.896 26.624 59.52 59.52 59.52l90.368 0c32.896 0 59.52-26.624 59.52-59.52l0-153.088 178.56 0L795.648 332.8 512.256 633.984 229.12 332.8zM555.776 735.104c-11.776 11.776-27.392 18.176-44.032 18.176-16.64 0-32.256-6.528-44.544-18.816L77.184 320.64l72.832 0L505.344 697.6c2.304 2.304 5.12 2.688 6.528 2.688 1.408 0 4.096-0.384 6.016-2.176l356.096-377.472 72.832 0L555.776 735.104z"  horiz-adv-x="1024" />

    
    <glyph glyph-name="zhifeiji" unicode="&#59026;" d="M596.8-98.4h-0.8c-9.6 0.8-18.4 7.2-20.8 16.8l-117.6 426.4-428 119.2c-9.6 2.4-16 11.2-16.8 20.8s5.6 19.2 14.4 22.4l918.4 357.6c8.8 3.2 17.6 1.6 24-4.8s8.8-16 4.8-24l-356-920c-4-8.8-12-14.4-21.6-14.4zM107.2 489.6l375.2-104.8c8-2.4 13.6-8 16-16l102.4-372 313.6 806.4-807.2-313.6zM494.4 688.8h52.8v-28.8h-52.8z"  horiz-adv-x="1024" />

    
    <glyph glyph-name="shouye1" unicode="&#59027;" d="M736-32H608c-17.673 0-32 14.327-32 32V255H448v-255c0-17.673-14.327-32-32-32H288c-39.995 0-62.738 16.003-74.775 29.429-23.13 25.798-22.847 58.481-22.225 67.829V351h-63a32 32 0 0 0-22.627 54.628l384 384c12.485 12.485 32.724 12.499 45.225 0.029l384-383A31.999 31.999 0 0 0 896 352h-64v-286.537c0.761-9.736 1.312-42.175-21.387-67.887C798.702-15.917 776.089-32 736-32z m-96 64h96c8.852 0 20.629 1.344 26.464 7.742 6.287 6.896 5.845 18.826 5.743 20.55-0.216 1.454-0.207 2.141-0.207 3.708V384c0 17.673 14.327 32 32 32h18.603L512.03 721.774 205.255 415H223c17.673 0 32-14.327 32-32v-319c0-1.404 0.017-1.932-0.153-3.216-0.074-1.738-0.322-13.777 6.215-20.835C267.148 33.379 279.07 32 288 32h96V287c0 17.673 14.327 32 32 32h192c17.673 0 32-14.327 32-32v-255z"  horiz-adv-x="1024" />

    
    <glyph glyph-name="shouye2" unicode="&#59028;" d="M778-12.2H596.7c-26.2 0-47.6 21.4-47.6 47.6V217.5h-72v-182.1c0-26.2-21.4-47.6-47.6-47.6H245.7c-26.2 0-47.6 21.4-47.6 47.6V334.2h-81.5c-20.1 0-37.6 12.2-44.6 31-7 18.7-1.7 39.3 13.3 52.4l387.7 346 0.2 0.2c25.6 22.1 63.6 21.3 88.4-1.7l380.1-345.6 0.2-0.2c14.3-13.5 18.9-34 11.6-52.2-7.2-18.2-24.6-30-44.2-30h-83.7v-298.7c0-26.2-21.4-47.6-47.6-47.6z m-170.9 58h160.5V392.1h114.7l-360 327.3-0.1 0.1c-3.1 2.9-7.8 3-10.9 0.4L144 392.2h112.1v-346.4h163V227.9c0 26.2 21.4 47.6 47.6 47.6h92.8c26.2 0 47.6-21.4 47.6-47.6v-182.1z"  horiz-adv-x="1024" />

    
    <glyph glyph-name="shouye3" unicode="&#59030;" d="M512.36 384.1m-446 0a446 446 0 1 1 892 0 446 446 0 1 1-892 0ZM768.29 399.51L512.36 655.52 256.44 399.51h86.46v-286.84h105.52V400.53h128v-287.86h104.47V399.51z"  horiz-adv-x="1024" />

    
    <glyph glyph-name="shouye4" unicode="&#59032;" d="M844.63936-128h-177.28a64 64 0 0 0-64 64v241.28H422.87936V-64a64 64 0 0 0-64-64H184.79936a64 64 0 0 0-64 64V408.32a64 64 0 0 0 23.68 49.28l328.32 266.24a64 64 0 0 0 80 0l332.16-266.88a64 64 0 0 0 23.68-49.92V-64a64 64 0 0 0-64-64z m-421.76 369.28h180.48a64 64 0 0 0 64-64V-64h177.28V407.68L514.39936 674.56 184.79936 408.32V-64h174.08v241.28a64 64 0 0 0 64 64zM31.83936 416a31.36 31.36 0 0 0-24.96 12.16 32 32 0 0 0 5.12 44.8L475.35936 839.04a64 64 0 0 0 79.36 0l457.6-366.08a32 32 0 0 0-40.32-49.92L514.39936 789.12 51.67936 423.04a28.8 28.8 0 0 0-19.84-7.04z"  horiz-adv-x="1026" />

    
    <glyph glyph-name="shouye" unicode="&#59024;" d="M511.89 767.255c-201.858 0-365.49-163.632-365.49-365.49 0-201.857 163.632-365.489 365.49-365.489s365.489 163.632 365.489 365.489c0 201.858-163.631 365.49-365.489 365.49zM722.047 403.3c0-10.279-3.231-19.801-18.274-19.801h-36.549v-164.471c0-14.812-8.975-18.273-18.273-18.273h-91.373c0 0 0 114.858 0 127.911 0 5.881-10.494 18.275-18.274 18.275h-36.549c-7.334 0-18.274-11.663-18.274-18.275v-127.911c0 0-71.903 0-91.372 0-10.413 0-18.274 7.781-18.274 18.273l-0 164.472h-36.548c-11.226 0-18.274 3.516-18.274 20.701v3.632l189.293 191.695c2.213 2.168 5.354 3.265 9.316 3.265 4.471 0 7.879-1.115 10.119-3.301 95.219-93.238 193.31-192.516 193.31-192.516l-0-3.677z"  horiz-adv-x="1024" />

    
    <glyph glyph-name="wenjian" unicode="&#59022;" d="M1036.572-55.784h-780.721c-62.416 0-113.411 47.899-115.072 107.38l-78.125 495.818v2.735c0 60.873 51.662 110.396 115.164 110.396h14.961v63.036c0 60.873 51.651 110.396 115.13 110.396h234.199c42.067 0 105.428-34.714 140.178-74.338h302.237c48.717 0 161.228-35.661 166.943-104.891 45.468-14.762 78.311-56.069 78.311-104.599v-2.747l-78.137-495.807c-1.659-59.493-52.643-107.38-115.072-107.38zM136.887 552.441l78.008-495.070v-2.747c0-21.109 18.374-38.279 40.957-38.279h780.721c22.582 0 40.957 17.17 40.957 38.279v2.747l78.008 495.070c-1.274 20.046-19.146 35.989-40.932 35.989h-37.075v59.903c-1.823 3.846-12.027 14.026-34.48 24.113-23.096 10.357-46.52 15.078-58.536 15.078h-341.532l-10.87 17.147c-17.953 28.368-70.714 57.191-90 57.191h-234.199c-22.593 0-40.968-17.182-40.968-38.279v-135.152h-89.135c-21.775 0-39.647-15.942-40.921-36zM100.875 589.458h1086.428v-69.779h-1086.428z"  horiz-adv-x="1329" />

    
    <glyph glyph-name="fujian-tianchong" unicode="&#59023;" d="M938.666667 704H569.6c-23.466667 0-44.8 4.266667-55.466667 25.6l-49.066666 87.466667c-10.666667 21.333333-32 36.266667-55.466667 36.266666H85.333333C49.066667 853.333333 21.333333 825.6 21.333333 789.333333v-810.666666c0-36.266667 27.733333-64 64-64h853.333334c36.266667 0 64 27.733333 64 64V640c0 34.133333-29.866667 64-64 64z m-149.333334-341.333333H234.666667c-12.8 0-21.333333 8.533333-21.333334 21.333333s8.533333 21.333333 21.333334 21.333333h554.666666c12.8 0 21.333333-8.533333 21.333334-21.333333s-10.666667-21.333333-21.333334-21.333333z"  horiz-adv-x="1024" />

    
    <glyph glyph-name="wenjian1" unicode="&#59029;" d="M873.472 28.672H150.528l-40.96 40.96V698.368l40.96 40.96h178.176l38.912-28.672 34.816-108.544h471.04l40.96-40.96v-492.544l-40.96-39.936z m-681.984 81.92h642.048V521.216h-460.8l-38.912 28.672-34.816 108.544H191.488v-547.84zM837.632 623.616h-61.44v40.96h-358.4v61.44h389.12l30.72-30.72z"  horiz-adv-x="1024" />

    
    <glyph glyph-name="icon1" unicode="&#59021;" d="M827.505255 700.731688C652.829957 875.406986 369.558335 875.406986 194.883037 700.730665 20.202623 526.05025 20.201599 242.779651 194.876897 68.104353c174.681438-174.681438 457.952037-174.679391 632.632451 0C1002.18567 242.779651 1002.18567 526.05025 827.505255 700.731688zM352.449679 192.469825l-63.700811 0L288.748868 576.167694l63.700811 0L352.449679 192.469825zM543.467177 192.469825l-63.700811 0L479.766366 576.167694l63.700811 0L543.467177 192.469825zM735.848743 192.469825l-63.700811 0L672.147932 576.167694l63.700811 0L735.848743 192.469825z"  horiz-adv-x="1024" />

    
    <glyph glyph-name="tuodong" unicode="&#59135;" d="M341.333333 810.666667h101.973334v-101.973334H341.333333V810.666667z m231.765334 0h101.973333v-101.973334h-101.973333V810.666667zM341.333333 569.6h101.973334v-101.973333H341.333333V569.6z m231.765334 0h101.973333v-101.973333h-101.973333V569.6zM341.333333 328.618667h101.973334v-101.973334H341.333333v101.973334z m231.765334 0h101.973333v-101.973334h-101.973333v101.973334zM341.333333 87.509333h101.973334v-101.973333H341.333333v101.973333z m231.765334 0h101.973333v-101.973333h-101.973333v101.973333z"  horiz-adv-x="1024" />

    
    <glyph glyph-name="xiaoxi1" unicode="&#59012;" d="M360 24.01c-198.822 0-360 161.178-360 360s161.178 360 360 360 360-161.178 360-360-161.178-360-360-360z m0.016 669.984c-171.208 0-310-138.792-310-310s138.792-310 310-310 310 138.792 310 310-138.792 310-310 310zM764.01 124c-45.435 0-88.14 11.666-125.305 32.148a360.993 360.993 0 0 1 29.141 41.132c28.813-14.868 61.506-23.27 96.163-23.27 115.98 0 210 94.021 210 210 0 115.98-94.02 210-210 210-34.658 0-67.351-8.401-96.163-23.269a361.03 361.03 0 0 1-29.13 41.117C675.878 632.336 718.58 644 764.01 644c143.594 0 260-116.406 260-260S907.604 124 764.01 124zM211.01 384m-45 0a45 45 0 1 1 90 0 45 45 0 1 1-90 0ZM509.01 384m-45 0a45 45 0 1 1 90 0 45 45 0 1 1-90 0ZM829.01 384m-30 0a30 30 0 1 1 60 0 30 30 0 1 1-60 0ZM699.01 384m-30 0a30 30 0 1 1 60 0 30 30 0 1 1-60 0Z"  horiz-adv-x="1024" />

    
    <glyph glyph-name="xiaoxi2" unicode="&#59013;" d="M435.541333-67.242667l3.413334 24.576c2.048 14.336 4.096 30.037333 4.778666 45.738667-206.848 32.085333-361.813333 207.530667-361.813333 413.013333 0.682667 231.424 193.194667 419.157333 430.08 419.157334s429.397333-187.733333 429.397333-418.474667c0-173.397333-111.957333-330.410667-277.845333-391.850667l-228.010667-92.16zM512 806.570667c-221.184 0-400.725333-174.762667-400.725333-389.802667 0-195.925333 150.186667-362.496 349.525333-387.072l12.970667-1.365333-0.682667-12.970667c-0.682667-12.970667-2.048-25.258667-2.730667-37.546667l182.954667 73.728c155.648 57.344 259.413333 204.117333 259.413333 365.226667 0 215.04-179.541333 389.802667-400.725333 389.802667z m0-611.669334c-67.584 0-131.072 27.989333-174.762667 75.776l-12.288 13.653334 51.2 25.941333 7.509334-7.509333c32.768-34.133333 79.189333-53.930667 129.024-53.930667 49.152 0 96.256 19.797333 129.024 53.930667l7.509333 7.509333 51.2-25.941333-12.288-13.653334c-45.056-48.469333-108.544-75.776-176.128-75.776z"  horiz-adv-x="1024" />

    
    <glyph glyph-name="xiaoxi4" unicode="&#59014;" d="M865.978182 730.530909l-392.145455-170.589091h-156.625454a149.410909 149.410909 0 1 1 0-298.821818h15.36v-181.294545h169.658182v168.02909l363.985454-182.458181z m-471.738182-217.134545h61.207273v-205.730909h-76.334546v205.730909z m-77.032727-205.730909a102.865455 102.865455 0 1 0 0 205.730909h15.36v-205.730909z m61.905454-181.294546v134.749091h76.567273v-134.749091z m440.32 14.429091l-317.44 158.952727V521.309091l317.44 138.007273zM728.901818 554.123636h46.545455v-186.181818h-46.545455z"  horiz-adv-x="1024" />

    
    <glyph glyph-name="xiaoxi5" unicode="&#59016;" d="M848.8 345.4V492.3c0 121.2-80.5 239.8-192.9 291.8-18.9 51.2-67.9 85-130.2 85-60.7 0-109.9-34.2-129.2-84.7-114-52.1-194.8-171.4-193.3-292.9v-145.7c-35.1-31.7-78-83.6-66.6-141 4.7-24 23.2-67.1 93.5-86.5l9.3-2.6h573.3l9.5 2.7c69.1 19.4 87.3 62.2 92 86 11.5 57.2-30.7 109.2-65.4 141z m-45.9-163.2H249.1c-114.2 31.4 23.1 132.9 23.1 132.9V492.3c-1.3 106.9 79.6 212.2 184.6 243.6 0 34.7 24.2 66.7 69 66.7 44.7 0 69.5-29.7 69.5-66.7 104.7-31.5 184.6-137 184.6-243.6v-177.2c-0.1 0 134.8-101.5 23-132.9zM342.2-76.8c-25.3 0-45.8 18.7-45.8 41.8 0 23.1 20.5 41.8 45.8 41.8h323.4c25.3 0 45.8-18.7 45.8-41.8 0-23.1-20.5-41.8-45.8-41.8H342.2z"  horiz-adv-x="1024" />

    
    <glyph glyph-name="xiaoxi6" unicode="&#59019;" d="M512 832c249.6 0 448-198.4 448-448s-198.4-448-448-448-448 198.4-448 448 198.4 448 448 448z m0 64C230.4 896 0 665.6 0 384s230.4-512 512-512 512 230.4 512 512-230.4 512-512 512zM729.6 332.8H704v-51.2h25.6c25.6 0 51.2-25.6 51.2-51.2s-25.6-51.2-51.2-51.2H320c-25.6 0-51.2 25.6-51.2 51.2s25.6 51.2 51.2 51.2h25.6v51.2H320c-57.6 0-102.4-44.8-102.4-102.4 0-57.6 44.8-102.4 102.4-102.4h409.6c57.6 0 102.4 44.8 102.4 102.4 0 57.6-44.8 102.4-102.4 102.4zM345.6 313.6V512c0 96 83.2 172.8 179.2 172.8C620.8 678.4 704 601.6 704 512v-192h51.2V512c0 121.6-102.4 217.6-230.4 217.6S294.4 633.6 294.4 512v-192h51.2v-6.4zM294.4 313.6c0-12.8 12.8-25.6 25.6-25.6s25.6 12.8 25.6 25.6-12.8 25.6-25.6 25.6-25.6-6.4-25.6-25.6z m409.6 0c0-12.8 12.8-25.6 25.6-25.6s25.6 12.8 25.6 25.6-12.8 25.6-25.6 25.6-25.6-6.4-25.6-25.6z m-179.2-262.4c-25.6 0-51.2 25.6-51.2 51.2h-51.2c0-57.6 44.8-102.4 102.4-102.4 57.6 0 102.4 44.8 102.4 102.4H576c0-25.6-25.6-51.2-51.2-51.2zM524.8 768c-25.6 0-51.2-25.6-51.2-51.2H576c0 25.6-25.6 51.2-51.2 51.2z"  horiz-adv-x="1024" />

    
    <glyph glyph-name="xiaoxi7" unicode="&#59020;" d="M1010.176 710.656c0.512 24.576-10.24 48.128-29.184 64-14.336 12.288-33.28 19.456-52.736 19.456-5.632 0-10.24-0.512-15.872-1.536h-0.512L302.08 611.328H110.08c-53.248 0-96.768-43.52-96.768-97.28v-185.856c0-53.76 43.52-97.28 97.28-97.28h50.176l118.272-232.96c7.68-14.336 22.528-23.552 39.424-23.552 7.168 0 13.312 1.536 19.968 4.608 21.504 11.264 30.208 37.888 18.944 59.392L259.072 230.4h43.52l610.816-174.592h0.512c4.096-0.512 8.704-1.024 13.312-1.024 19.968 0 38.912 7.168 53.76 19.968 18.944 15.872 29.696 38.912 29.696 63.488l-0.512 572.416z m-219.648-147.968c-24.064 0-44.032-19.968-44.032-44.032v-323.072l-385.536 110.592V539.136l562.176 166.4v-561.152l-88.064 25.088V518.656c-0.512 24.064-19.968 44.032-44.544 44.032zM100.864 328.704V513.536c0 4.608 4.096 9.216 9.216 9.216h163.328V317.44l-162.816 1.024c-5.12 0.512-9.728 4.608-9.728 10.24z"  horiz-adv-x="1024" />

    
    <glyph glyph-name="tubiaoku-" unicode="&#58993;" d="M815.36-122.88H207.1552c-75.6224 0-134.8096 52.6848-134.8096 119.9104V767.488C72.3456 835.4304 132.8128 890.88 207.1552 890.88h464.64l278.3744-253.2864v-640.768c0-67.2256-59.2896-119.7056-134.8096-119.7056zM207.1552 841.5744c-47.2576 0-85.7088-33.2288-85.7088-74.0352v-770.7136c0-39.68 37.632-70.7584 85.7088-70.7584h608.2048c48.0256 0 85.7088 31.0784 85.7088 70.7584V615.68L652.8 841.5744zM725.8112 266.7008a24.576 24.576 0 0 0-24.576-24.576H321.28a24.576 24.576 0 0 0 0 49.152H701.44a24.576 24.576 0 0 0 24.576-24.576M725.8112 446.8736a24.576 24.576 0 0 0-24.576-24.576H321.28a24.576 24.576 0 1 0 0 49.152H701.44a24.576 24.576 0 0 0 24.576-24.576M725.8112 83.3024a24.576 24.576 0 0 0-24.576-24.576H321.28a24.576 24.576 0 0 0 0 49.152H701.44a24.576 24.576 0 0 0 24.576-24.576M739.4304 618.8032h182.8864a24.576 24.576 0 1 0 0-49.152h-182.8864M739.4304 569.7024a116.9408 116.9408 0 0 0-116.7872 116.7872V849.92a24.576 24.576 0 1 0 49.152 0v-163.4304a67.7376 67.7376 0 0 1 67.6864-67.6864"  horiz-adv-x="1024" />

    
    <glyph glyph-name="wendang" unicode="&#59002;" d="M823.105-43.298H200.893c-37.676 0-68.328 30.652-68.328 68.328V742.97c0 37.676 30.652 68.328 68.328 68.328h622.212c37.676 0 68.328-30.652 68.328-68.328V25.03c0.001-37.676-30.65-68.329-68.328-68.329zM200.893 770.366c-15.106 0-27.396-12.29-27.396-27.396v-717.938c0-15.107 12.29-27.396 27.396-27.396h622.212c15.107 0 27.396 12.29 27.396 27.396V742.97c0 15.106-12.29 27.396-27.396 27.396H200.893zM281.628 661.508H742.37v-64.465H281.628v64.465zM281.628 515.183H742.37v-64.465H281.628v64.465zM281.628 359.136h384.137v-64.464H281.628v64.464zM281.628 217.416h384.137v-64.464H281.628v64.464z"  horiz-adv-x="1024" />

    
    <glyph glyph-name="jinlingyingcaiwangtubiao65" unicode="&#59006;" d="M644.8384 848.9472L191.9232 848.9472c-40.32 0-73.1136-32.7936-73.1136-73.088l0-778.2912c0-40.32 32.7936-73.1136 73.1136-73.1136l640.1536 0c40.32 0 73.1136 32.7936 73.1136 73.1136L905.1904 578.048 644.8384 848.9472zM645.2992 793.0624l206.9504-215.3216-172.2624 0c-19.1488 0-34.688 15.5648-34.688 34.7136L645.2992 793.0624zM832.0768-37.1712L191.9232-37.1712c-19.1488 0-34.7136 15.5648-34.7136 34.7136L157.2096 775.8592c0 19.1232 15.5648 34.688 34.7136 34.688l414.976 0 0-198.0928c0-40.32 32.7936-73.1136 73.088-73.1136l186.7776 0 0-541.7728C866.7904-21.606400000000008 851.2-37.1712 832.0768-37.1712zM726.1184 307.1232L291.1232 307.1232c-10.5984 0-19.2-8.6016-19.2-19.2s8.6016-19.2 19.2-19.2l435.0208 0c10.5984 0 19.2 8.6016 19.2 19.2S736.7168 307.1232 726.1184 307.1232zM726.1184 166.88639999999998L291.1232 166.88639999999998c-10.5984 0-19.2-8.6016-19.2-19.2s8.6016-19.2 19.2-19.2l435.0208 0c10.5984 0 19.2 8.6016 19.2 19.2S736.7168 166.88639999999998 726.1184 166.88639999999998zM726.1184 447.3856L291.1232 447.3856c-10.5984 0-19.2-8.6016-19.2-19.2s8.6016-19.2 19.2-19.2l435.0208 0c10.5984 0 19.2 8.6016 19.2 19.2S736.7168 447.3856 726.1184 447.3856z"  horiz-adv-x="1024" />

    
    <glyph glyph-name="wendang1" unicode="&#59011;" d="M576 153.6H324.267c-12.8 0-21.334-8.533-21.334-21.333s8.534-21.334 21.334-21.334H576c12.8 0 21.333 8.534 21.333 21.334S584.533 153.6 576 153.6zM699.733 320H324.267c-12.8 0-21.334-8.533-21.334-21.333 0-12.8 8.534-21.334 21.334-21.334h375.466c12.8 0 21.334 8.534 21.334 21.334 0 12.8-8.534 21.333-21.334 21.333zM324.267 614.4h102.4c12.8 0 21.333 8.533 21.333 21.333 0 12.8-8.533 21.334-21.333 21.334h-102.4c-12.8 0-21.334-8.534-21.334-21.334 0-12.8 8.534-21.333 21.334-21.333zM678.4 840.533H221.867c-46.934 0-85.334-38.4-85.334-85.333v-750.933c0-46.934 38.4-85.334 85.334-85.334H806.4c46.933 0 85.333 38.4 85.333 85.334V614.4L678.4 840.533z m166.4-832c0-21.333-17.067-42.666-42.667-42.666H221.867c-21.334 0-42.667 17.066-42.667 42.666V759.467c0 21.333 17.067 42.666 42.667 42.666h375.466v-209.066c0-21.334 17.067-42.667 42.667-42.667h209.067v-541.867zM635.733 593.067V802.133h21.334L844.8 593.067H635.733z m-332.8-123.734c0-12.8 8.534-21.333 21.334-21.333h375.466c12.8 0 21.334 8.533 21.334 21.333 0 12.8-8.534 21.334-21.334 21.334H324.267c-12.8-4.267-21.334-12.8-21.334-21.334z"  horiz-adv-x="1024" />

    
    <glyph glyph-name="shenglvehao1" unicode="&#58988;" d="M593.088 748.992a81.088 81.088 0 1 1-162.176 0 81.088 81.088 0 0 1 162.176 0z m0-364.992a81.088 81.088 0 1 1-162.176 0 81.088 81.088 0 0 1 162.176 0z m0-364.992a81.088 81.088 0 1 1-162.176 0 81.088 81.088 0 0 1 162.176 0z"  horiz-adv-x="1024" />

    
    <glyph glyph-name="renwu" unicode="&#58990;" d="M884.8-118.4H144c-36.8 0-67.2 30.4-67.2 67.2V686.4c0 36.8 30.4 67.2 67.2 67.2h33.6V652.8c0-36.8 30.4-67.2 67.2-67.2h538.432c36.8 0 67.2 30.4 67.2 67.2V753.6h33.536c36.8 0 67.2-30.4 67.2-67.2V-51.2a66.432 66.432 0 0 0-66.368-67.2z m-150.4 456a52.224 52.224 0 0 1-72 0L482.368 166.4l-83.968 80a52.224 52.224 0 0 1-72 0 46.08 46.08 0 0 1 0-68.032l120-113.6c20.032-19.2 52.032-19.2 72 0l216 204.8a46.08 46.08 0 0 1 0 68.032zM682.368 652.8h-336c-36.736 0-67.2 30.4-67.2 67.2v33.6C413.632 852.032 415.168 853.632 450.368 887.168h133.632c32.768-31.168 32-35.2 165.632-133.568v-33.6a66.56 66.56 0 0 0-67.2-67.2zM514.368 819.968c-36.8 0-67.2-30.4-67.2-67.2 0-36.8 30.464-67.2 67.2-67.2 36.8 0 67.2 30.4 67.2 67.2 0 37.632-30.336 67.2-67.2 67.2z"  horiz-adv-x="1024" />

    
    <glyph glyph-name="shujuyuanmoxing" unicode="&#58991;" d="M489.6 168.768h421.12c26.88 0 49.28-22.4 49.28-53.76v-80.64c0-26.88-22.4-53.76-49.28-53.76H489.6c-26.88 0-49.28 22.4-49.28 53.76v9.024H158.08c-17.92 0-31.36 13.44-31.36 31.36V598.848h-13.44c-26.88 0-49.28 26.88-49.28 53.76v80.64c0 31.36 22.4 53.76 49.28 53.76H198.4c26.88 0 49.28-22.4 49.28-53.76v-80.64c0-26.88-22.4-53.76-49.28-53.76h-13.44v-188.16h250.88v8.96c0 26.88 22.4 53.76 49.344 53.76h421.12c26.88 0 49.28-22.4 49.28-53.76v-80.64c0-26.88-22.4-53.76-49.28-53.76H485.12c-26.88 0-49.28 22.4-49.28 53.76v9.088H184.96v-246.4h250.88v13.376a54.4 54.4 0 0 0 53.76 53.76z m421.12 430.08H359.68c-31.36 0-53.76 26.88-53.76 53.76v80.64c0 31.36 22.4 53.76 53.76 53.76h551.04c26.88 0 49.28-22.4 49.28-53.76v-80.64c0-26.88-22.4-53.76-49.28-53.76z"  horiz-adv-x="1024" />

    
    <glyph glyph-name="shenpimoxing-shigong" unicode="&#58992;" d="M873.216 483.968l74.944 76.864a39.808 39.808 0 0 1 0 56.64l-189.376 194.304c-3.904 4.032-7.872 4.032-11.84 4.032L624.704 832c-7.936 0-11.904 0-15.808-4.032l-35.52-36.48a39.808 39.808 0 0 1 0-56.64l90.752-93.056-153.856-137.6-39.488 32.384c27.648 72.832 19.712 161.92-43.392 226.624C364.288 827.968 277.504 844.16 202.56 815.808c-3.968-4.032-7.936-16.192 0-20.224l118.336-121.408a19.904 19.904 0 0 0 0-28.352L241.92 564.864a18.752 18.752 0 0 0-27.648 0L96 686.336c-3.904 8.064-15.744 4.032-19.712-4.096-27.648-76.864-7.872-165.888 51.264-230.656 63.168-64.768 145.984-72.832 220.928-44.544l23.68-28.288-193.28-169.984a134.848 134.848 0 0 1-7.936-194.304c55.232-56.64 142.08-52.608 189.44 8.128l149.888 178.048 126.208-157.824c51.328-64.768 142.08-68.8 197.248-12.16a137.856 137.856 0 0 1-11.776 202.368l-165.76 141.632 118.4 141.696 43.392-32.384a37.504 37.504 0 0 1 55.232 0z m-110.464-335.936a35.84 35.84 0 0 0 35.52-36.48 35.84 35.84 0 0 0-35.52-36.352 35.84 35.84 0 0 0-35.52 36.416 35.84 35.84 0 0 0 35.52 36.48z"  horiz-adv-x="1024" />

    
    <glyph glyph-name="shuju" unicode="&#58994;" d="M916.672 441.792v-420.416a63.104 63.104 0 0 0-63.104-63.04h-84.032a63.104 63.104 0 0 0-63.104 63.04v420.48c0 34.816 28.224 63.104 63.104 63.104h84.032a63.232 63.232 0 0 0 63.104-63.168zM328.128 357.76v-336.256a63.104 63.104 0 0 0-63.104-63.104H180.992a63.104 63.104 0 0 0-63.104 63.104V357.76c0 34.816 28.224 63.104 63.104 63.104H264.96a63.232 63.232 0 0 0 63.104-63.168z m294.272-84.096v-252.16a63.104 63.104 0 0 0-63.104-63.104H475.264a63.104 63.104 0 0 0-63.104 63.104v252.16c0 34.88 28.224 63.104 63.104 63.104h84.032c34.816 0 63.104-28.224 63.104-63.104z m175.168 472.448l-49.664-0.32a31.488 31.488 0 0 0-0.512 63.04l126.528 0.896a31.36 31.36 0 0 0 31.808-31.552v-126.72a31.552 31.552 0 0 0-63.04 0v50.56L560.192 535.296a31.424 31.424 0 0 0-35.072-6.464L136.32 581.632c-18.368 3.456-23.104 25.664-16 41.6 7.04 15.936 24.064 20.032 41.6 16.064l369.024-44.032 266.688 150.848z"  horiz-adv-x="1024" />

    
    <glyph glyph-name="shangchuan" unicode="&#58995;" d="M112.384-32.298667v414.506667l160-85.717333v-168.789334h480v168.704l160 85.674667v-414.464H112.384v0.085333z m480 279.978667h-160V527.701333H272.64l239.914667 239.786667 239.786666-239.786667h-159.914666v-280.021333z"  horiz-adv-x="1024" />

    
    <glyph glyph-name="touxiang" unicode="&#58996;" d="M512 384m-512 0a512 512 0 1 1 1024 0 512 512 0 1 1-1024 0ZM336 455.488a37.728 37.728 0 1 1 75.424 0 37.728 37.728 0 0 1-75.424 0z m276.576 0a37.728 37.728 0 1 1 75.424 0 37.728 37.728 0 0 1-75.424 0zM512 736C317.6 736 160 578.4 160 384s157.6-352 352-352 352 157.6 352 352S706.4 736 512 736z m206.656-558.656a292.32 292.32 0 0 0-92.96-62.688 289.344 289.344 0 0 0-113.696-22.944 291.04 291.04 0 0 0-206.72 85.632A290.656 290.656 0 0 0 219.712 384a291.04 291.04 0 0 0 85.632 206.72A290.656 290.656 0 0 0 512 676.288a291.04 291.04 0 0 0 206.72-85.632A290.656 290.656 0 0 0 804.288 384c0-39.52-7.68-77.76-22.944-113.76a289.856 289.856 0 0 0-62.72-92.896z m-87.232 190.144h-37.76a6.336 6.336 0 0 1-6.4-5.792 75.52 75.52 0 0 0-150.528 0 6.336 6.336 0 0 1-6.4 5.792h-37.76a6.272 6.272 0 0 1-6.304-6.592A126.016 126.016 0 0 1 512 241.792c67.2 0 122.24 52.864 125.728 119.104a6.272 6.272 0 0 1-6.304 6.592z"  horiz-adv-x="1024" />

    
    <glyph glyph-name="xiangmu" unicode="&#58997;" d="M760.32 371.2h-307.2c-25.6 0-46.08 20.48-46.08 46.08 0 25.6 20.48 46.08 46.08 46.08h307.2c25.6 0 46.08-20.48 46.08-46.08 0-25.6-20.48-46.08-46.08-46.08z m-524.8-135.68c0-28.16 20.48-48.64 48.64-48.64a48.64 48.64 0 1 1 0 97.28c-28.16 0-48.64-20.48-48.64-48.64z m0 181.76c0-28.16 20.48-48.64 48.64-48.64a48.64 48.64 0 1 1-48.64 48.64z m524.8-227.84h-307.2c-25.6 0-46.08 20.48-46.08 46.08 0 25.6 20.48 46.08 46.08 46.08h307.2c25.6 0 46.08-20.48 46.08-46.08 0-25.6-20.48-46.08-46.08-46.08z m209.92-148.48v576c0 69.12-64 64-64 64H545.28C524.8 680.96 512 691.2 512 691.2s-15.36 25.6-43.52 66.56c-25.6 46.08-58.88 38.4-58.88 38.4H130.56C51.2 796.16 51.2 721.92 51.2 721.92v-675.84c0-84.48 64-74.24 64-74.24h798.72c66.56 0 56.32 69.12 56.32 69.12z"  horiz-adv-x="1024" />

    
    <glyph glyph-name="sousuo21" unicode="&#58999;" d="M474.325333 725.418667a305.109333 305.109333 0 0 1-305.152-305.152 305.109333 305.109333 0 0 1 507.477334-228.48l143.36-143.36a20.394667 20.394667 0 1 1 28.885333 29.013333l-143.573333 143.530667a303.658667 303.658667 0 0 1 74.026666 199.253333 305.066667 305.066667 0 0 1-305.066666 305.194667z m0-569.344a263.594667 263.594667 0 0 0-186.794666 77.397333 263.594667 263.594667 0 0 0-77.397334 186.794667 263.594667 263.594667 0 0 0 77.397334 186.794666 263.594667 263.594667 0 0 0 186.794666 77.397334 263.594667 263.594667 0 0 0 186.794667-77.397334 263.594667 263.594667 0 0 0 77.397333-186.794666 263.594667 263.594667 0 0 0-77.397333-186.794667 263.594667 263.594667 0 0 0-186.794667-77.397333z"  horiz-adv-x="1024" />

    
    <glyph glyph-name="xinxi-daiquan" unicode="&#59003;" d="M526.272 824.512c118.464-2.176 218.496-45.888 300.544-130.752 81.6-84.544 124.224-192.896 127.488-324.416-3.264-118.784-45.504-218.88-127.488-300.48-82.048-81.664-182.08-124.288-300.544-127.488-131.456 3.2-239.488 45.44-324.352 127.488C117.056 150.848 73.6 250.88 71.168 369.28c2.56 131.52 46.208 239.488 130.752 324.416 84.48 84.864 192.896 128.192 324.352 130.752z m41.152-330.88h-137.6v-27.84h54.912v-304.128h-54.912v-27.072h193.28v27.072h-55.68V493.632z m-54.912 165.12a54.272 54.272 0 0 1-39.04-15.616 53.12 53.12 0 0 1-15.808-39.04c0-15.808 5.376-28.8 15.872-38.976 10.88-10.432 23.808-15.872 39.04-16.256a56.448 56.448 0 0 1 38.976 16.256 53.12 53.12 0 0 1 15.872 39.04 52.544 52.544 0 0 1-15.872 39.04 52.8 52.8 0 0 1-39.04 15.488z"  horiz-adv-x="1024" />

    
    <glyph glyph-name="lianxi1" unicode="&#59004;" d="M438.272-21.184l-98.56 82.752a27.712 27.712 0 0 0-3.392 39.104 32 32 0 0 0 45.056 3.904l49.6-41.6 58.112 69.248h381.44c16.448 0 29.888 13.376 29.888 29.888V699.52a29.888 29.888 0 0 1-29.888 29.888H153.6a29.888 29.888 0 0 1-29.888-29.888v-537.6c0-16.512 13.44-29.888 29.888-29.888h61.312a32 32 0 0 0 32-32c0-15.296-12.416-27.712-27.712-27.712H153.6a89.6 89.6 0 0 0-89.6 89.6v537.6a89.6 89.6 0 0 0 89.6 89.6h716.8a89.6 89.6 0 0 0 89.6-89.6v-537.6a89.6 89.6 0 0 0-89.6-89.6H516.928L438.272-21.12zM245.76 433.984a48 48 0 1 1 96 0 48 48 0 0 1-96 0zM463.68 433.984a48 48 0 1 1 96 0 48 48 0 0 1-96 0zM682.24 433.984a48 48 0 1 1 96 0 48 48 0 0 1-96 0z"  horiz-adv-x="1024" />

    
    <glyph glyph-name="sousuo1" unicode="&#58986;" d="M889.4 45.6L737.8 198.3c57.8 68.1 86.8 154.7 81.8 244-5 90.2-44.3 173.8-110.5 235.2-64.5 59.8-148.4 92.8-236.3 92.8-45.2 0-89.2-8.6-130.8-25.5-43.1-17.5-81.7-43.1-114.8-76.3-63.9-63.9-100-148.8-101.7-239.2-1.7-90.4 31.3-176.6 92.7-242.8 33.4-36 73.1-64 117.9-83.1 43.4-18.5 89.4-27.9 136.8-27.9 82.2 0 161.8 29.2 224.5 82.4L847 5.3c5.6-5.9 13.2-9.2 21.3-9.2 7.5 0 14.7 2.8 20.1 8 11.7 11.1 12.2 29.7 1 41.5zM474 132.9C314.7 133 185 262.8 184.8 422c0 159.5 129.7 289.2 289.2 289.2S763.2 581.5 763.2 422c-0.1-159.4-129.8-289.1-289.2-289.1z"  horiz-adv-x="1024" />

    
    <glyph glyph-name="search1" unicode="&#58987;" d="M449.86216297 3.405748150000022c-116.50844445 0-217.48242963 46.60337778-302.92195556 124.27567407-163.11182222 163.11182222-163.11182222 434.96485925 0 598.07668148S581.90506667 888.86992592 745.01688889 725.7581037s163.11182222-434.96485925 0-598.07668148c-77.6722963-77.6722963-186.41351111-124.27567408-295.15472592-124.27567407z m0 768.95573333c-93.20675555 0-178.64628148-31.06891852-248.55134815-100.97398518-132.0429037-132.0429037-132.0429037-349.52533333 0-489.33546667 62.13783703-62.13783703 155.34459259-100.97398518 248.55134815-100.97398518 93.20675555 0 178.64628148 38.83614815 248.55134814 100.97398518 132.0429037 132.0429037 132.0429037 357.29256297 0 489.33546667C628.50844445 741.2925629700001 535.30168889 772.36148148 449.86216297 772.36148148zM962.49931852-89.80100741000001c-7.76722963 0-23.30168889 0-31.06891852 7.76722963L713.94797037 150.98311110999998c-15.53445925 15.53445925-15.53445925 38.83614815 0 54.37060741s38.83614815 15.53445925 54.37060741 0l225.24965925-225.24965927c15.53445925-15.53445925 15.53445925-38.83614815 0-54.3706074-7.76722963-7.76722963-23.30168889-15.53445925-31.06891851-15.53445926z"  horiz-adv-x="1024" />

    
    <glyph glyph-name="sousuo2" unicode="&#59065;" d="M474.666667 821.333333C695.573333 821.333333 874.666667 642.24 874.666667 421.333333c0-95.082667-33.173333-182.421333-88.586667-251.072l147.093333-147.093333a42.666667 42.666667 0 0 0-60.341333-60.341333l-147.093333 147.093333A398.325333 398.325333 0 0 0 474.666667 21.333333C253.76 21.333333 74.666667 200.426667 74.666667 421.333333S253.76 821.333333 474.666667 821.333333z m0-85.333333C300.885333 736 160 595.114667 160 421.333333S300.885333 106.666667 474.666667 106.666667 789.333333 247.552 789.333333 421.333333 648.448 736 474.666667 736z"  horiz-adv-x="1024" />

    
    <glyph glyph-name="sousuo3" unicode="&#59102;" d="M474.666667 821.333333C695.573333 821.333333 874.666667 642.24 874.666667 421.333333c0-95.082667-33.173333-182.421333-88.586667-251.072l147.093333-147.093333a42.666667 42.666667 0 0 0-60.341333-60.341333l-147.093333 147.093333A398.325333 398.325333 0 0 0 474.666667 21.333333C253.76 21.333333 74.666667 200.426667 74.666667 421.333333S253.76 821.333333 474.666667 821.333333z m0-85.333333C300.885333 736 160 595.114667 160 421.333333S300.885333 106.666667 474.666667 106.666667 789.333333 247.552 789.333333 421.333333 648.448 736 474.666667 736z"  horiz-adv-x="1024" />

    
    <glyph glyph-name="xiangyou1" unicode="&#58979;" d="M65.937408 264.263424 882.85184 263.61728 595.134464 17.804032 594.568192-50.384128 948.18304 264.263424 948.18304 308.42752 594.4064 666.32576 594.245632 599.889664 882.016256 307.944192 65.937408 308.42752 65.937408 264.263424Z"  horiz-adv-x="1024" />

    
    <glyph glyph-name="xiangyou2" unicode="&#58983;" d="M575.115 768.345l385.587-385.35L578.759 1.05l-45.225 45.225L838.22 350.963l-772.074-0.001v63.956h771.948L529.892 723.121z"  horiz-adv-x="1024" />

    
    <glyph glyph-name="xiangyou3" unicode="&#58985;" d="M662.592 41.375999999999976l319.616 319.616c0 0 9.76 7.008 9.76 22.752s-9.376 22.87999999-9.376 22.88l-320 320c-12.48 12.51200001-32.736 12.51200001-45.248 0-12.51200001-12.48-12.51200001-32.736 0-45.248l265.888-265.888L63.776 415.48800001c-17.53599999 0-31.744-14.208-31.744-31.74400001S46.24 352 63.776 352l819.008 0-265.376-265.376c-12.51200001-12.48-12.51200001-32.736 0-45.248C629.888 28.864000000000033 650.144 28.864000000000033 662.592 41.375999999999976z"  horiz-adv-x="1024" />

    
    <glyph glyph-name="xiangyou4" unicode="&#59042;" d="M571.76064 37.632a38.01088 38.01088 0 0 0-26.9824 11.01824 38.00576 38.00576 0 0 0 0 53.59104l274.41152 275.16928-274.41152 274.02752a38.00576 38.00576 0 0 0 0 53.59104 38.00576 38.00576 0 0 0 53.9648 0l301.39904-301.39392a38.01088 38.01088 0 0 0 11.02336-26.60352 38.01088 38.01088 0 0 0-11.02336-26.9824l-301.39392-301.39904a38.01088 38.01088 0 0 0-26.9824-11.02336zM823.36768 339.4048H151.02464a38.00576 38.00576 0 1 0 0 76.01152h672.34304a38.00576 38.00576 0 1 0 0-76.01152z"  horiz-adv-x="1024" />

    
    <glyph glyph-name="jinghao" unicode="&#58978;" d="M115.152 539.547c-1.492 9.942-2.486 18.724-3.314 25.849-0.829 7.125-0.995 14.251-0.995 21.541 0 22.867 3.314 38.112 9.611 45.237 6.463 7.125 15.41 10.77 27.01 10.77h198.343L410.596 890.999c40.266-2.818 67.109-8.285 80.863-16.239 13.753-7.954 20.546-17.564 20.546-28.998v-15.079L460.141 643.11h239.438L766.522 891.164c40.266-2.817 67.108-8.285 80.862-16.238 13.753-7.954 20.547-17.565 20.547-28.998 0-5.8-0.829-10.771-2.154-15.079l-49.71-187.739h170.34c2.817-8.617 4.309-16.902 4.309-24.855v-22.701c0-21.541-3.314-36.289-9.776-44.242-6.463-7.954-15.41-11.765-27.01-11.765H788.063L710.35 252.719h200.498c1.326-10.108 2.485-19.056 3.314-27.01a217.169 217.169 0 0 0 1.159-22.701c0-37.448-12.262-56.007-36.619-56.007H682.181l-73.24-269.595c-40.265 2.816-66.942 8.285-79.867 16.072-12.925 7.954-19.387 17.564-19.387 29.164 0 5.634 0.662 10.107 2.154 12.925l56.006 211.269H326.421l-71.086-269.597c-40.265 2.817-67.606 8.286-82.022 16.074-14.416 7.953-21.541 17.564-21.541 29.163 0 2.816 0.331 4.971 0.994 6.462 0.663 1.326 0.994 3.646 0.994 6.463l58.327 211.269H39.592c-2.817 10.107-4.308 19.056-4.308 27.009V196.38c0 21.541 3.314 36.289 9.776 44.242 6.463 7.954 15.41 11.765 27.01 11.765h168.186l75.394 286.829H115.152v0.331z m239.272-286.828H595.85l77.714 286.828H432.138l-77.714-286.828z"  horiz-adv-x="1024" />

    
    <glyph glyph-name="jinghao1" unicode="&#59191;" d="M911.6 558.1l-25.9-103.7c-2.1-7.4-6.9-11.1-14.3-11.1H719.9l-29.6-118.5h144c4.7 0 8.5-1.9 11.6-5.6 3.1-4.3 4-8.7 2.8-13l-26.1-103.7c-1.6-7.4-6.3-11.1-14.3-11.1H656.9l-37.5-151.9c-2.1-7.4-6.9-11.1-14.3-11.1H501.4c-5 0-9 1.9-12.1 5.6-2.8 3.7-3.7 8-2.8 13l36.1 144.4H405.1l-37.5-151.9c-2.1-7.4-6.9-11.1-14.3-11.1H249c-4.7 0-8.5 1.9-11.6 5.6-2.8 3.7-3.7 8-2.8 13l36.1 144.3h-144c-4.7 0-8.5 1.9-11.6 5.6-2.8 3.7-3.7 8-2.8 13l26 103.9c2.1 7.4 6.9 11.1 14.3 11.1H304l29.6 118.5H189.7c-4.7 0-8.5 1.9-11.6 5.6-3.1 4.3-4 8.7-2.8 13l26 103.8c1.6 7.4 6.3 11.1 14.3 11.1H367l37.5 151.9c2.1 7.4 7.1 11.1 14.8 11.1H523c4.7 0 8.5-1.9 11.6-5.6 2.8-3.7 3.7-8 2.8-13l-36.1-144.4H619l37.5 151.9c2.1 7.4 7.1 11.1 14.8 11.1H775c4.7 0 8.5-1.9 11.6-5.6 2.8-3.7 3.7-8 2.8-13l-36.1-144.4h144c4.7 0 8.5-1.9 11.6-5.6 2.7-3.9 3.7-8.2 2.7-13.2zM556 324.8l29.6 118.5H468l-29.6-118.5H556z"  horiz-adv-x="1024" />

    
    <glyph glyph-name="jinghao2" unicode="&#59391;" d="M332.117 298.667l17.92 170.666h-179.37v85.334H359.04L381.44 768h85.803l-22.4-213.333H615.04L637.44 768h85.803l-22.4-213.333h152.49v-85.334h-161.45l-17.92-170.666h179.37v-85.334H664.96L642.56 0h-85.803l22.4 213.333H408.96L386.56 0h-85.803l22.4 213.333h-152.49v85.334h161.45z m85.803 0h170.24l17.92 170.666H435.84l-17.92-170.666z"  horiz-adv-x="1024" />

    
    <glyph glyph-name="jinghao3" unicode="&#58975;" d="M443.306667 724.693333a42.666667 42.666667 0 0 0 34.56-49.450666L456.618667 554.666667h169.301333l23.893333 135.381333a42.666667 42.666667 0 1 0 84.053334-14.805333L712.618667 554.666667H810.666667a42.666667 42.666667 0 0 0 0-85.333334h-113.109334l-30.08-170.666666H768a42.666667 42.666667 0 0 0 0-85.333334h-115.584l-22.272-126.336a42.666667 42.666667 0 0 0-84.053333 14.805334L565.76 213.333333H396.416l-22.272-126.336a42.666667 42.666667 0 0 0-84.053333 14.805334L309.76 213.333333H213.333333a42.666667 42.666667 0 0 0 0 85.333334h111.445334l30.122666 170.666666H256a42.666667 42.666667 0 1 0 0 85.333334h113.92l23.893333 135.381333a42.666667 42.666667 0 0 0 49.493334 34.645333zM580.736 298.666667l30.122667 170.666666h-169.344l-30.08-170.666666h169.301333z"  horiz-adv-x="1024" />

    
    <glyph glyph-name="icon" unicode="&#58969;" d="M884.358101 57.580808 361.733113 57.580808 214.178499-89.750725 214.178499 57.580808l-74.521251 0c-41.120536 0-74.445526 33.268708-74.445526 74.317613L65.211722 615.406506c0 41.047882 33.32499 74.344219 74.445526 74.344219l744.700853 0c41.10314 0 74.42813-33.296337 74.42813-74.344219l0-483.508086C958.786231 90.849516 925.461241 57.580808 884.358101 57.580808L884.358101 57.580808zM921.581887 615.406506c0 20.496823-16.708544 37.158295-37.223786 37.158295l-744.700853 0c-20.530592 0-37.22174-16.661472-37.22174-37.158295l0-483.508086c0-20.459984 16.690124-37.150108 37.22174-37.150108l74.521251 0 37.22174 0 0-37.167504 0-57.588603 84.008322 83.85892 10.896164 10.897188 15.427364 0 522.624988 0c20.515243 0 37.223786 16.690124 37.223786 37.150108L921.580864 615.406506 921.581887 615.406506zM511.998465 336.353976c-20.551058 0-37.202297 16.663518-37.202297 37.159318 0 20.531616 16.651238 37.195134 37.202297 37.195134 20.553105 0 37.222763-16.663518 37.222763-37.195134C549.221228 353.017494 532.55157 336.353976 511.998465 336.353976L511.998465 336.353976zM363.08797 336.353976c-20.550035 0-37.223786 16.663518-37.223786 37.159318 0 20.531616 16.673751 37.195134 37.223786 37.195134 20.551058 0 37.223786-16.663518 37.223786-37.195134C400.311757 353.017494 383.639029 336.353976 363.08797 336.353976L363.08797 336.353976zM657.421532 336.353976c-20.572548 0-37.22481 16.663518-37.22481 37.159318 0 20.531616 16.651238 37.195134 37.22481 37.195134 20.549012 0 37.201274-16.663518 37.201274-37.195134C694.623829 353.017494 677.970544 336.353976 657.421532 336.353976L657.421532 336.353976z"  horiz-adv-x="1024" />

    
    <glyph glyph-name="comment" unicode="&#58970;" d="M478.12337181 51.08173754999996c5.64610514 0 5.64610514 0 0 0H794.3052345c62.10715126 0 112.92209353 50.81494229 112.92209484 112.92209487V502.77011433c0 62.10715126-50.81494229 112.92209353-112.92209484 112.92209354H229.6947655c-62.10715126 0-112.92209353-50.81494229-112.92209484-112.92209354v-338.76628191c0-62.10715126 50.81494229-112.92209353 112.92209484-112.92209487h28.23052305c16.93831409 0 28.23052304-11.29220895 28.23052306-28.23052306s-11.29220895-28.23052304-28.23052306-28.23052305H229.6947655c-95.98377943 0-169.38314095 73.39936152-169.38314095 169.38314098V502.77011433c0 95.98377943 73.39936152 169.38314095 169.38314095 169.38314095h564.610469c95.98377943 0 169.38314095-73.39936152 169.38314095-169.38314095v-338.76628191c0-95.98377943-73.39936152-169.38314095-169.38314095-169.38314098h-304.88965374l-220.19808323-107.27598971c-11.29220895-5.64610514-28.23052304 0-39.52273203 11.29220897-5.64610514 11.29220895 0 28.23052304 11.29220895 39.52273332l225.8441884 112.92209353h11.29220896zM286.15581161 333.38697336999996m-56.46104611 0a56.46104742 56.46104742 0 1 1 112.92209355 0 56.46104742 56.46104742 0 1 1-112.92209355 0ZM512 333.38697336999996m-56.46104742 0a56.46104742 56.46104742 0 1 1 112.92209484 0 56.46104742 56.46104742 0 1 1-112.92209484 0ZM737.84418839 333.38697336999996m-56.46104744 0a56.46104742 56.46104742 0 1 1 112.92209355 0 56.46104742 56.46104742 0 1 1-112.92209355 0Z"  horiz-adv-x="1024" />

    
    <glyph glyph-name="_huaban" unicode="&#58974;" d="M750.5 680.5H275.9c-48.6 0-88.1-39.5-88.1-88.1v-474.5c0-18.1 10.7-28.1 20.8-31.3 3.2-1 6.3-1.5 9.2-1.5 16 0 27.4 13.8 32.8 20.2 6.3 7.5 13.7 17.8 21.6 28.7 9.7 13.4 20.7 28.5 31.1 40.7 11.3 13.4 17.3 18 19.7 19.5h427.6c48.6 0 88.1 39.5 88.1 88.1v310c0 48.6-39.6 88.2-88.2 88.2z m33.2-398.2c0-18.3-14.9-33.1-33.1-33.1H320c-25.7 0-47.8-23.2-77.3-62.4V592.3c0 18.3 14.9 33.1 33.1 33.1h474.7c18.3 0 33.1-14.9 33.1-33.1v-310zM642.961365 418.984946a37.4 37.4 0 1 1 69.106189 28.624721 37.4 37.4 0 1 1-69.106189-28.624721ZM478.659769 418.994972a37.4 37.4 0 1 1 69.106189 28.624721 37.4 37.4 0 1 1-69.106189-28.624721ZM314.358248 419.004615a37.4 37.4 0 1 1 69.106189 28.624721 37.4 37.4 0 1 1-69.106189-28.624721Z"  horiz-adv-x="1024" />

    
    <glyph glyph-name="duihua" unicode="&#58967;" d="M735.152 639.641H128.038c-35.26 0-63.906-28.615-63.906-63.906v-383.407c0-35.326 28.648-63.907 63.906-63.907h63.907v-159.828L351.713 128.42h383.44c35.321 0 63.905 28.581 63.905 63.907V575.735c0 35.29-28.585 63.906-63.906 63.906z m0-447.313h-409.9l-18.724-18.724-50.675-50.675v69.399H128.038V575.735h607.114v-383.407zM271.83 336.056c26.523 0 47.927 21.528 47.927 47.99 0 26.43-21.404 47.898-47.927 47.898-26.525 0-47.932-21.468-47.932-47.898 0-26.462 21.407-47.99 47.932-47.99z m159.766 0c26.522 0 47.928 21.528 47.928 47.99 0 26.43-21.405 47.898-47.928 47.898-26.525 0-47.93-21.468-47.93-47.898-0.001-26.462 21.404-47.99 47.93-47.99z m159.763 0c26.462 0 47.932 21.528 47.932 47.99 0 26.43-21.47 47.898-47.932 47.898-26.459 0-47.927-21.468-47.927-47.898 0-26.462 21.467-47.99 47.927-47.99zM894.918 799.408H287.804c-35.262 0-63.907-28.615-63.907-63.905v-63.908h63.907v63.908h607.114v-383.41H831.01v-63.906h63.908c35.322 0 63.905 28.584 63.905 63.905v383.41c0 35.291-28.583 63.906-63.905 63.906z m0 0"  horiz-adv-x="1024" />

    
    <glyph glyph-name="duihua1" unicode="&#58968;" d="M604.843 428.459h0.085c25.941 0 46.933-23.04 46.933-51.2-0.17-28.331-21.162-51.2-47.018-51.371-25.942 0-46.934 23.04-47.019 51.285 0 28.331 21.077 51.286 46.933 51.286z m418.73 395.008l0.086-486.827c0-39.51-29.355-71.595-65.536-71.68h-65.536v62.208h74.24V832.853H243.2v-81.066h-56.917v71.68c0 39.509 29.354 71.509 65.621 71.509h706.048c36.181 0 65.536-32 65.621-71.51zM419.157 428.373c25.856-0.085 46.934-23.04 46.934-51.2 0-28.33-20.992-51.2-46.934-51.37-25.941 0.085-46.933 23.04-46.933 51.285 0 28.33 20.992 51.285 46.933 51.285z m418.646 192h-0.171v-486.912c0-39.424-29.355-71.509-65.536-71.509H322.56l-173.568-189.44v189.44h-83.03c-36.18 0-65.535 32-65.535 71.51V620.543c0 39.51 29.354 71.51 65.536 71.595h706.304c36.181-0.086 65.45-32.086 65.536-71.68zM777.216 128h0.085V626.005H60.843v-497.92h148.65v-95.914L297.387 128h479.829z m-544 300.373c25.856 0 46.933-22.954 46.933-51.2 0-28.16-21.162-51.37-46.933-51.37-25.856 0-47.019 22.954-47.019 51.285 0 28.33 20.992 51.285 46.934 51.285z"  horiz-adv-x="1024" />

    
    <glyph glyph-name="trash" unicode="&#58962;" d="M852.072759 705.107706H660.390255l-0.112888 63.216845c0 35.220814-27.996031 63.329732-63.103957 63.329732H406.168228c-35.220814 0-62.99107-27.996031-62.99107-63.103958v-63.216845H151.607541c-35.220814 0-63.668394 1.919083-63.668394-33.188843s28.560467-30.931099 63.668394-30.931099v-572.902657c0-70.32874 58.024033-124.175945 128.352772-124.175945h448.049388c70.32874 0 123.837284 53.847205 123.837284 124.175945V640.987763c35.107926 0 68.183883-4.176827 68.29677 30.931099 0 35.220814-33.075956 33.188844-68.070996 33.188844z m-445.791643 31.382648c0 17.610407 14.22379 31.834197 31.834197 31.834197h127.336787c17.610407 0 31.834197-14.22379 31.834197-31.834197v-31.382648H406.394003l-0.112887 31.382648zM789.081689 67.407783c0-35.107926-29.463565-62.99107-64.571492-62.99107H278.944328c-35.220814 0-63.442619 28.334693-63.442619 63.442619V639.6331170000001c43.800243 0 537.79473 0.112887 573.57998 0.112887v-572.338221zM374.446919 545.59806c17.610407 0 31.834197-14.22379 31.834197-31.834197v-413.731673c0-17.610407-14.22379-31.834197-31.834197-31.834196s-31.834197 14.22379-31.834197 31.834196V513.763863c0 17.49752 14.22379 31.834197 31.834197 31.834197zM629.007607 545.59806c17.610407 0 31.834197-14.22379 31.834197-31.834197v-413.731673c0-17.610407-14.22379-31.834197-31.834197-31.834196S597.17341 82.421784 597.17341 100.03219000000001V513.763863c0.112887 17.49752 14.336677 31.834197 31.834197 31.834197z"  horiz-adv-x="1024" />

    
    <glyph glyph-name="qingkong" unicode="&#58965;" d="M459.248 165.366V498.554c0 14.222-11.507 25.6-25.858 25.6s-25.859-11.508-25.859-25.6v-333.188c0-14.223 11.507-25.6 25.859-25.6s25.858 11.507 25.858 25.6zM407.79 677.754h205.058c14.223 0 25.6 11.507 25.6 25.858s-11.507 25.859-25.6 25.859H407.79c-14.222 0-25.6-11.507-25.6-25.859s11.378-25.858 25.6-25.858z m333.188-128c-14.222 0-25.6-11.508-25.6-25.6v-384.388c0-28.315-23.014-51.2-51.2-51.2H356.59c-28.315 0-51.2 23.014-51.2 51.2V524.154c0 14.222-11.507 25.6-25.6 25.6s-25.6-11.508-25.6-25.6v-435.718c0-28.315 23.014-51.2 51.2-51.2h409.988c28.315 0 51.2 23.015 51.2 51.2V524.154c0 14.222-11.507 25.6-25.6 25.6z m76.8 102.787H202.73c-14.093 0-25.6-11.507-25.6-25.858s11.507-25.859 25.6-25.859h615.047c14.222 0 25.6 11.507 25.6 25.859S832 652.54 817.778 652.54z m-204.8-487.175V498.554c0 14.222-11.507 25.6-25.859 25.6s-25.858-11.508-25.858-25.6v-333.188c0-14.223 11.507-25.6 25.858-25.6s25.859 11.507 25.859 25.6z"  horiz-adv-x="1024" />

    
    <glyph glyph-name="qingkong1" unicode="&#59010;" d="M471.8592 226.7136V473.088c0 16.9984-13.5168 25.8048-26.624 25.8048-13.312 0-26.624-8.8064-26.624-25.8048v-246.5792c0-16.9984 13.5168-25.8048 26.624-25.8048 13.1072 0.2048 26.624 9.0112 26.624 26.0096zM804.2496 589.4144H696.32v40.5504c0 39.3216-31.744 71.4752-70.8608 71.4752h-225.28c-39.5264 0-71.4752-32.1536-71.4752-71.4752v-40.5504h-107.9296c-16.9984 0-25.8048-13.312-25.8048-26.624s8.8064-26.624 25.8048-26.624h583.68c16.9984 0 25.8048 13.312 25.8048 26.624s-9.0112 26.624-26.0096 26.624z m-422.2976 40.7552c0 9.6256 8.6016 18.2272 18.2272 18.2272h225.28c10.24 0 17.6128-7.5776 17.6128-18.2272v-40.5504H381.952v40.5504zM714.5472 498.688c-13.312 0-26.624-9.0112-26.624-26.2144v-335.4624c0-9.4208-8.6016-18.2272-18.2272-18.2272H355.328c-9.6256 0-18.2272 8.6016-18.2272 18.2272V473.088c0 14.9504-11.6736 26.624-26.624 26.624s-26.624-11.6736-26.624-26.624v-336.2816c0-39.3216 32.1536-71.4752 71.4752-71.4752H669.696c39.5264 0 71.4752 32.1536 71.4752 71.4752V472.4736c0 17.2032-13.312 26.2144-26.624 26.2144zM606.4128 226.7136V473.088c0 16.9984-13.312 25.8048-26.624 25.8048s-26.624-8.8064-26.624-25.8048v-246.5792c0-16.9984 13.312-25.8048 26.624-25.8048 13.312 0.2048 26.624 9.0112 26.624 26.0096z"  horiz-adv-x="1024" />

    
    <glyph glyph-name="hebingxingzhuangx" unicode="&#58964;" d="M208.213333 693.703111l30.795852-655.54963A75.813926 75.813926 0 0 1 314.785185-34.133333h370.763852a75.813926 75.813926 0 0 1 75.738074 72.286814l30.795852 655.54963H208.213333z m659.83526 0l-31.023408-659.114667a151.665778 151.665778 0 0 0-151.476148-144.573629H314.747259a151.665778 151.665778 0 0 0-151.476148 144.573629l-31.023407 659.152593H37.925926v75.851852h924.444444v-75.851852h-94.321777zM365.719704 594.147556h75.851852V61.62963h-75.851852V594.10963z m193.042963 0h75.851852V61.62963h-75.851852V594.10963zM355.13837 820.148148V896h289.98163v-75.851852H355.176296z"  horiz-adv-x="1024" />

    
    <glyph glyph-name="yonghuming" unicode="&#59031;" d="M490.383423-127.943114C202.826065-127.943114 56.914171-63.264041 56.914171 64.330648c0 91.017166 150.348981 150.747181 300.129104 170.884729v18.942948c-89.936337 62.85873-133.738348 172.534415-133.738347 334.488084C223.304928 745.480362 321.432809 839.114271 486.003222 839.114271h8.874174c164.513527 0 262.698295-93.633909 262.698294-250.467862 0-60.86773 0-241.536804-132.657519-334.715627l-0.455086-18.829177c149.609466-20.251319 299.446475-79.867563 299.446476-170.827842 0-127.537803-145.855008-192.216877-433.469252-192.216877zM486.060108 772.444198c-89.424365 0-196.028221-31.856008-196.028221-183.797789 0-145.96878 38.454753-240.171546 117.639687-287.841787a33.278151 33.278151 0 0 0 16.098661-28.613522v-66.670073a33.335037 33.335037 0 0 0-30.035665-33.16438c-162.351869-16.212433-270.093439-75.828676-270.093439-108.082884 0-103.759569 199.49825-125.546803 366.856064-125.546803 167.357813 0 366.799178 21.787234 366.799177 125.546803 0 32.311094-107.684684 91.870452-270.093439 108.082884a33.335037 33.335037 0 0 0-30.035665 33.903894l1.479029 66.670074a33.448808 33.448808 0 0 0 16.098662 27.874007c79.24182 47.784012 116.160658 139.256264 116.160657 287.841787 0.056886 151.884895-106.603855 183.740903-195.971335 183.740903h-8.874173z"  horiz-adv-x="1024" />

    
    <glyph glyph-name="mima" unicode="&#59073;" d="M318.8 512.1v65.7c0 105 86 190.2 192 190.2s192-85.1 192-190.2v-1.8H768c-0.3 142.2-115.3 257.3-257.2 257.3-142.1 0-257.2-115.4-257.2-257.8v-63.4H128.1v-576h768v576H318.8z m513.3-512h-640v448h61.4v-0.2h65.2v0.2H832v-448zM576 256.4c0 35.3-28.7 64-64 64s-64-28.7-64-64c0-24.1 13.3-45.1 33-56-0.7-2-1-4.2-1-6.4v-41.2c0-14 14.3-25.4 32-25.4s32 11.4 32 25.4V194c0 2.2-0.4 4.3-1 6.4 19.7 10.9 33 31.9 33 56z"  horiz-adv-x="1024" />

    
    <glyph glyph-name="yonghuming1" unicode="&#58973;" d="M512-128C229.23264-128 0 101.23264 0 384S229.23264 896 512 896s512-229.23264 512-512-229.23264-512-512-512z m0 40.96c260.15744 0 471.04 210.88256 471.04 471.04S772.15744 855.04 512 855.04 40.96 644.15744 40.96 384s210.88256-471.04 471.04-471.04zM512 424.96a122.88 122.88 0 1 0 0 245.76 122.88 122.88 0 0 0 0-245.76z m0 40.96a81.92 81.92 0 1 1 0 163.84 81.92 81.92 0 0 1 0-163.84zM430.08 384h163.84a143.36 143.36 0 0 0 0-286.72h-163.84a143.36 143.36 0 0 0 0 286.72z m0-40.96a102.4 102.4 0 0 1 0-204.8h163.84a102.4 102.4 0 0 1 0 204.8h-163.84z"  horiz-adv-x="1024" />

    
    <glyph glyph-name="yonghuming2" unicode="&#58951;" d="M511.943119-128c282.215026 0 511.815137 229.628552 511.815137 511.843577 0 282.186585-229.600111 511.815137-511.815137 511.815137C229.728093 895.658714 0.127982 666.030162 0.127982 383.843577c0-282.215026 229.600111-511.843577 511.815137-511.843577z m0 959.667602c246.948813 0 447.852465-200.875212 447.852465-447.824025S758.863491-64.008888 511.943119-64.008888 64.062214 136.894765 64.062214 383.843577 264.994306 831.667602 511.943119 831.667602z m0-110.548202c110.320678 0 199.794473-88.705902 199.794473-198.144924 0-109.439022-89.445355-198.116484-199.794473-198.116484-110.349118 0-199.737592 88.705902-199.737592 198.116484 0 109.467463 89.416914 198.144924 199.737592 198.144924z m0-339.636384c78.780169 0 142.714401 63.365421 142.714401 141.5199 0 78.21136-63.905791 141.5199-142.714401 141.5199s-142.714401-63.365421-142.714401-141.5199c0-78.182919 63.905791-141.5199 142.714401-141.5199z m0 0c157.64566 0 285.400361-126.730843 285.400361-283.06824h-57.080072c0 125.024413-102.215137 226.443216-228.320289 226.443216-126.105152 0-228.320289-101.418803-228.320289-226.443216H226.542758c0 156.337398 127.754701 283.068241 285.400361 283.06824z"  horiz-adv-x="1024" />

    
    <glyph glyph-name="yonghuming3" unicode="&#58955;" d="M512 805c43.1 0 83.7-16.8 114.2-47.3 30.5-30.5 47.3-71.1 47.3-114.2s-16.8-83.7-47.3-114.2C595.7 498.8 555.1 482 512 482s-83.7 16.8-114.2 47.3c-30.5 30.5-47.3 71.1-47.3 114.2s16.8 83.7 47.3 114.2C428.3 788.2 468.9 805 512 805m0 64c-124.5 0-225.5-101-225.5-225.5S387.5 418 512 418s225.5 101 225.5 225.5S636.5 869 512 869zM688.2 338.4c50.1 0 97.3-19.5 132.7-55 35.5-35.5 55-82.6 55-132.7 0-50.1-19.5-97.3-55-132.7-35.5-35.5-82.6-55-132.7-55H335.8c-50.1 0-97.3 19.5-132.7 55-35.5 35.5-55 82.6-55 132.7 0 50.1 19.5 97.3 55 132.7 35.5 35.5 82.6 55 132.7 55h352.4m0 64H335.8c-139 0-251.7-112.7-251.7-251.7S196.8-101 335.8-101h352.4c139 0 251.7 112.7 251.7 251.7S827.2 402.4 688.2 402.4z"  horiz-adv-x="1024" />

    
    <glyph glyph-name="fenzucopy" unicode="&#58956;" d="M512 384a224 224 0 1 1 0 448 224 224 0 0 1 0-448z m0-64a288 288 0 1 0 0 576 288 288 0 0 0 0-576zM288 192a128 128 0 1 1 0-256h448a128 128 0 1 1 0 256H288z m0 64h448a192 192 0 1 0 0-384H288a192 192 0 1 0 0 384z"  horiz-adv-x="1024" />

    
    <glyph glyph-name="yonghuming4" unicode="&#58963;" d="M512-128c282.784 0 512 229.216 512 512S794.784 896 512 896 0 666.784 0 384s229.216-512 512-512z m0 64C264.576-64 64 136.576 64 384S264.576 832 512 832s448-200.576 448-448-200.576-448-448-448zM256 195.648c0 113.76 113.76 199.072 256.672 199.072 142.912 0 255.328-90.336 255.328-199.072v-85.344c0-28.416-28.512-56.864-56.384-56.864H312.896c-28.48 0-56.896 28.448-56.896 56.864v85.344z m57.504 0v-85.344H711.04v85.344c0 56.864-85.312 142.24-199.072 142.24s-198.464-85.376-198.464-142.24z m198.464 312.832a85.312 85.312 0 1 1 0 170.624 85.312 85.312 0 0 1 0-170.624z m0-56.896a142.208 142.208 0 1 0 0 284.416 142.208 142.208 0 0 0 0-284.416z"  horiz-adv-x="1024" />

    
    <glyph glyph-name="mima2" unicode="&#59132;" d="M512-81.92a460.8 460.8 0 1 0 460.8 460.8 460.8 460.8 0 0 0-460.8-460.8z m0 888.32a427.52 427.52 0 1 1 427.52-427.52A427.52 427.52 0 0 1 512 806.4z m170.68032-717.6448H341.31968a51.51232 51.51232 0 0 0-51.2 51.712v245.3504a51.51232 51.51232 0 0 0 51.2 51.712h341.36064a51.39456 51.39456 0 0 0 51.2-51.712v-245.34016a51.51232 51.51232 0 0 0-51.2-51.73248z m-129.65888 210.54464a38.50752 38.50752 0 0 1-38.4 38.79424h-5.44256a38.51264 38.51264 0 0 1-38.4-38.79424v-105.17504a38.51776 38.51776 0 0 1 38.4-38.80448h5.45792a38.51776 38.51776 0 0 1 38.4 38.80448v105.1648z m-43.27936 317.98272c-80.16384 0-142.848-63.3344-142.848-146.432h-51.2c0 99.65568 87.12704 198.17472 194.01216 198.17472 107.07968 0 194.01728-98.51904 194.01728-198.17472h-51.2c0.04608 83.0976-62.61248 146.432-142.78144 146.432z"  horiz-adv-x="1024" />

    
    <glyph glyph-name="yonghuming5" unicode="&#58959;" d="M644.250411 306.260107h-264.244287c-163.973399 0-293.972126-103.719659-318.028018-254.382511L61.493568 7.100574c27.248144-158.016431 201.510852-133.73252 318.398547-133.732521h264.244287c115.719103 0 287.730135-24.169901 317.457973 133.732521l1.282601 44.777022c-22.060735 148.610691-153.000036 254.382511-318.626565 254.382511z m-0.114009-368.448484h-264.244287c-162.20626 0-246.202368-5.871462-255.038063 89.326027 10.118296 124.298278 117.486242 214.536377 255.038063 214.536377v-0.142512h264.244287c137.437812 0 244.777256-90.095587 255.038063-209.12095-8.835695-100.584413-92.8033-94.598942-255.038063-94.598942zM512.199523 351.949202c147.356592 0 267.237023 119.880431 267.237022 267.265524S659.556115 886.480251 512.171021 886.480251c-147.356592 0-267.237023-119.908933-267.237023-267.265525s119.880431-267.265525 267.265525-267.265524z m0 463.275444c108.052 0 195.981417-87.929417 195.981417-196.00992s-87.929417-196.009919-195.981417-196.009919-196.009919 87.929417-196.00992 196.009919 87.929417 196.009919 196.00992 196.00992z"  horiz-adv-x="1024" />

    
    <glyph glyph-name="yanjing" unicode="&#59827;" d="M1013.5 413.4c-2.5 3.1-61.1 74.5-150.4 146.5-53.1 42.8-106.3 77.1-158 101.8-66.9 32-131.9 48.1-193.2 48.1-60.8 0-125.5-16.1-192.3-48.1C268 637 214.9 602.8 161.6 560c-89.5-72-148.5-143.4-151-146.3-14.1-17.2-14.1-41.9 0-59.2 2.5-3.2 61.5-74.5 151.1-146.5 53.2-42.8 106.3-76.9 158-101.7 66.8-32 131.5-48.1 192.3-48.1 251.9 0 491.2 283.9 501.2 296 14.3 17.1 14.4 41.9 0.3 59.2zM813.8 252c-49.5-38.8-98.5-69.5-145.5-91.2-55.5-25.6-108.1-38.7-156.3-38.7-51.3 0-106.7 14.1-164.7 41.9-47.2 22.6-96.1 54.2-145.5 93.8C136.7 310.2 88.5 362.5 69.5 384c20.6 23.4 68.3 74.7 132.3 126.1 49.4 39.7 98.4 71.3 145.5 93.9 58 27.8 113.3 41.9 164.6 41.9 51.7 0 107.4-14.1 165.5-41.9 47.2-22.6 96.1-54.2 145.4-93.9 64.6-52.1 112.3-104 131.5-126-20.2-23-71.4-78-140.5-132.1zM512 544c-88.2 0-160-71.8-160-160s71.8-160 160-160 160 71.8 160 160-71.8 160-160 160z m67.8-227.8C561.6 298 537.5 288 512 288s-49.6 10-67.8 28.2C426 334.4 416 358.5 416 384s10 49.6 28.2 67.8C462.4 470 486.5 480 512 480s49.6-10 67.8-28.2C598 433.6 608 409.5 608 384s-10-49.6-28.2-67.8z"  horiz-adv-x="1024" />

    
    <glyph glyph-name="eye-close" unicode="&#58945;" d="M941.677063 504.289644c9.337669 14.005992 6.224772 32.68133-6.224772 43.575447-14.005992 10.894118-32.68133 7.78122-43.575447-6.224771-1.556449-1.556449-174.300768-205.426673-379.727441-205.426673-199.200878 0-379.727441 205.426673-381.28389 206.982098-10.894118 12.450567-31.124881 14.005992-43.575448 3.112898-12.450567-10.894118-14.005992-31.124881-3.112897-43.575448 3.112897-4.668323 40.46255-46.687322 99.600439-93.375667l-79.369676-82.48155c-12.450567-12.450567-10.894118-32.68133 1.556449-43.575448 3.112897-6.224772 10.894118-9.337669 18.675338-9.337669 7.78122 0 15.562441 3.112897 21.787213 9.337669l85.594447 88.706321c40.46255-28.013007 88.706321-54.469566 141.619438-73.14388L340.959485 188.36841400000003c-4.668323-17.118889 4.669346-34.237779 21.787213-38.906101h9.337669c14.005992 0 26.456558 9.337669 29.568432 23.343661l32.68133 110.494556c24.90011-4.668323 51.356668-7.78122 77.813227-7.78122s52.913117 3.112897 77.813227 7.78122l32.68133-108.938108c3.112897-14.005992 17.118889-23.343661 29.569456-23.343661 3.112897 0 6.224772 0 7.78122 1.556449 17.118889 4.669346 26.456558 21.787212 21.788236 38.906102l-32.68133 108.938108c52.913117 18.675338 101.156888 45.131897 141.619438 73.14388l84.037998-87.150896c6.224772-6.224772 14.005992-9.337669 21.787212-9.337669 7.78122 0 15.562441 3.112897 21.787212 9.337669 12.450567 12.450567 12.450567 31.124881 1.556449 43.575448l-79.369675 82.48155c63.808258 46.688345 101.158934 91.820242 101.158934 91.820242z"  horiz-adv-x="1024" />

    
    <glyph glyph-name="yanjing1" unicode="&#59018;" d="M515.097 662.64c-297.215 0-476.783-303.408-476.783-303.408s207.433-294.12 476.783-294.12 476.783 294.12 476.783 294.12-179.568 303.407-476.783 303.407z m306.502-414.864C722.528 164.183 617.264 111.553 512 111.553s-210.528 49.535-309.6 136.223c-34.056 30.96-68.111 61.92-95.976 95.977-6.192 6.192-9.29 12.384-15.481 18.576 3.097 6.192 9.289 12.384 12.384 18.576 24.768 34.057 55.728 68.112 89.785 99.072 95.976 86.688 201.24 139.32 318.888 139.32s222.912-52.632 318.888-139.32c34.057-30.96 61.92-65.017 89.785-99.072 3.097-6.192 9.29-12.384 12.384-18.576-3.097-6.192-9.289-12.384-15.48-18.576-27.866-30.96-58.826-65.017-95.978-95.977zM512 555.724c-99.072 0-175.027-79.257-175.027-175.026 0-99.072 79.258-175.027 175.027-175.027 99.072 0 175.027 79.257 175.027 175.027S607.769 555.724 512 555.724z m0-303.82c-69.35 0-125.491 56.14-125.491 125.491 0 69.35 56.14 125.491 125.491 125.491 69.35 0 125.491-56.14 125.491-125.49 0-66.049-56.14-125.492-125.491-125.492z"  horiz-adv-x="1024" />

    
    <glyph glyph-name="yanjing2" unicode="&#58946;" d="M598.879 403.975l57.382-54.916c2.737 11.283 4.583 22.86 4.583 34.947 0 82.059-66.761 148.819-148.82 148.819-14.344 0-27.918-2.678-41.071-6.491l57.145-54.673c35.034-6.402 62.832-33.22 70.781-67.686z m-45.692-162.273L496.1 296.348c-35.15 6.37-63.098 33.246-70.984 67.864l-57.324 54.823c-2.742-11.312-4.587-22.918-4.587-35.03 0-82.058 66.76-148.819 148.819-148.819 14.378 0.001 27.981 2.709 41.163 6.516zM202.246 732.927c-11.908 11.335-30.748 10.918-42.089-0.955-11.368-11.873-10.953-30.719 0.922-42.088L845.646 35.08a29.661 29.661 0 0 1 20.569-8.24c7.857 0 15.657 3.09 21.519 9.194 11.369 11.873 10.924 30.718-0.921 42.088L202.246 732.927z m0 0M512.024 116.131c-157.447 0-311.896 105.632-385.888 264.092-0.145 0.566-0.325 1.07-0.503 1.608-0.059 0.503-0.208 0.92-0.267 1.219-0.035 0.325-0.271 0.747-0.271 1.163v0.383c0 0.688 0.417 1.371 0.508 2.054 0.116 0.417 0.325 0.775 0.446 1.192 27.65 59.647 66.969 111.851 113.61 153.76l-43.071 41.162c-51.608-47.116-94.945-105.243-125.217-171.378-0.979-1.967-1.667-3.807-2.112-5.479a15.84 15.84 0 0 1-0.596-1.487c-1.638-4.699-1.638-7.886-1.517-7.169-0.746-3.484-1.487-10.421-1.487-10.421-0.208-2.082-0.178-3.749 0.059-5.831 0 0 0.654-12.532 0.983-13.782l4.224-12.678c82.447-180.135 259.722-299.572 441.1-299.572 64.949 0 129.267 16.549 188.912 44.583l-46.371 45.184c-45.688-18.488-93.967-28.603-142.542-28.603z m446.457 267.783c0 5.386-0.921 9.853-1.187 10.356-0.18 2.708-1.076 7.534-1.938 10.063a70.751 70.751 0 0 1-0.774 1.932c-0.446 1.458-0.95 2.887-1.487 4.02-82.355 180.129-259.601 301.122-441.071 301.122-64.886 0-129.175-15.686-188.819-43.784l46.37-44.32c45.688 18.458 93.903 28.577 142.449 28.577 157.898 0 312.7-106.083 385.772-263.859 0.087-0.295 0.146-0.566 0.237-0.745 0.059-0.267 0.15-0.562 0.237-0.805 0.15-1.187 0.296-2.321 0.446-2.946-0.15-0.625-0.237-1.191-0.358-1.815-0.029-0.146-0.088-0.296-0.116-0.445-0.121-0.388-0.267-0.805-0.388-1.279-27.623-59.527-66.848-111.644-113.432-153.523l43.101-41.221c51.462 46.966 94.62 104.799 124.65 170.547 1.279 2.32 2.083 4.495 2.65 6.428 0.237 0.567 0.445 1.1 0.625 1.638 1.429 4.166 1.725 7.771 1.604 7.771 0 0 0-0.034-0.029-0.034 0.567 2.856 1.458 7.143 1.458 12.322z m0 0"  horiz-adv-x="1024" />

    
    <glyph glyph-name="eye" unicode="&#58947;" d="M959.804421 381.35782300000005c-0.019443-0.411369-0.036839-0.785899-0.074701-1.158383-0.020466-0.187265-0.037862-0.373507-0.056282-0.560772 0-0.280386-0.056282-0.579191-0.094144-0.841158-0.037862-0.318248-0.073678-0.635473-0.130983-0.972141 0-0.036839-0.01842-0.093121-0.01842-0.130983-1.103124-7.213285-4.356214-13.979386-9.345856-19.212574-9.401114-11.622712-19.678178-22.499433-29.995151-33.208333-55.803957-57.767682-119.850645-109.291149-189.971679-146.670477-44.813648-23.882943-92.695169-43.150776-142.350079-52.420907-54.590316-10.166547-109.273752-9.6815-163.581636 2.373047-43.078121 9.54847-84.21196 25.827225-123.401518 46.366004l1.252527 1.307785 112.019283 75.110675c27.585265-20.258393 61.336974-32.331359 97.930403-32.331359 92.751451 0 167.93478 76.659961 167.93478 171.225733 0 12.615319-1.420349 24.912389-3.980661 36.741809l148.033521 99.293447c9.812483-7.513114 19.473517-15.21247 28.948309-23.099091 34.574447-28.705785 68.569702-60.140729 97.126085-95.481631 5.008061-5.213745 8.260128-11.979846 9.361205-19.211551 0-0.01842 0.020466-0.074701 0.020466-0.112564 0.055259-0.317225 0.093121-0.653893 0.130983-0.971118 0.035816-0.280386 0.092098-0.560772 0.11154-0.841158 0-0.168846 0.01842-0.373507 0.035816-0.560772 0.037862-0.39295 0.058328-0.766456 0.075725-1.158383 0.037862-0.579191 0.074701-1.158383 0.074701-1.738597C959.860702 382.497787 959.84126 381.937015 959.804421 381.35782300000005zM511.986185 304.62213799999995c-5.514597 0-10.878768 0.578168-16.07307 1.607614l98.097202 65.802682C585.823867 333.51416500000005 552.222585 304.62213799999995 511.986185 304.62213799999995zM880.357997 607.7336210000001L152.826176 122.80109300000004l-0.242524-0.168846 0 0.01842c-3.307326-2.205225-7.251148-3.494591-11.492752-3.494591-11.586896 0-20.986987 9.588379-20.986987 21.398356 0 7.493671 3.793396 14.072507 9.511631 17.903765l0 0 727.514425 484.934574 0.260943 0.168846 0 0c3.288906 2.205225 7.230682 3.476171 11.475356 3.476171 11.606339 0 21.00643-9.568936 21.00643-21.399379 0-7.493671-3.794419-14.071484-9.514701-17.885346L880.357997 607.7336210000001zM511.986185 475.847871c7.998161 0 15.715937-1.234107 23.061228-3.364631L428.615383 400.159028C433.455621 442.750055 468.908064 475.847871 511.986185 475.847871zM613.913623 526.084019c-28.294416 22.090111-63.541175 35.358299-101.926414 35.358299-92.753497 0-167.95627-76.660984-167.95627-171.207313 0-15.118326 2.112104-29.696346 5.718235-43.674709l-145.67787-99.013061-7.625678-5.177929c-8.746198 6.746658-17.361413 13.604856-25.827225 20.652366-34.574447 28.723182-68.568678 60.138682-97.144504 95.460142-12.502755 15.474436-12.502755 33.771151 0 49.226145 9.401114 11.605316 19.679202 22.5199 29.995151 33.209356 55.803957 57.767682 119.850645 109.292172 189.970656 146.669454 44.815695 23.883967 92.676749 43.151799 142.351102 52.42193 54.589292 10.184967 109.25431 9.661034 163.563216-2.354628 40.498366-8.989745 79.222319-23.959691 116.282377-42.741453l-7.719822-4.933359L613.913623 526.084019z"  horiz-adv-x="1024" />

    
    <glyph glyph-name="bianzu" unicode="&#58950;" d="M55.908046 896h1024v-1024H55.908046zM928.462713 484.864a773.781333 773.781333 0 0 1-81.450667 84.928C760.590713 646.826667 667.044046 693.333333 568.654713 693.333333c-98.282667 0-192.021333-46.442667-278.826667-123.413333a780.202667 780.202667 0 0 1-81.92-84.821333 610.816 610.816 0 0 1-33.536-43.712l-29.226667-42.794667 29.226667-42.794667a610.133333 610.133333 0 0 1 33.536-43.712 780.096 780.096 0 0 1 81.92-84.821333c86.805333-76.949333 180.544-123.413333 278.826667-123.413333 98.389333 0 191.936 46.506667 278.357333 123.52A773.76 773.76 0 0 1 928.441379 312.32a606.058667 606.058667 0 0 1 33.301334 43.733333l16.64 24.64 12.138666 17.92-28.757333 42.538667c-6.890667 10.176-18.133333 25.386667-33.322667 43.733333z m-15.189334-86.272l-4.522666-6.698667c-5.76-8.533333-15.850667-22.144-29.653334-38.848a710.4 710.4 0 0 0-74.666666-77.866666c-75.797333-67.562667-155.776-107.306667-235.776-107.306667-79.957333 0-160.192 39.744-236.373334 107.285333a716.736 716.736 0 0 0-75.157333 77.866667 549.44 549.44 0 0 0-29.866667 38.826667l-4.608 6.741333 4.586667 6.72c5.845333 8.533333 16 22.144 29.866667 38.869333a716.842667 716.842667 0 0 0 75.178666 77.866667c76.181333 67.52 156.416 107.285333 236.373334 107.285333 80 0 160-39.765333 235.776-107.306666a710.421333 710.421333 0 0 0 74.666666-77.888c13.802667-16.725333 23.872-30.293333 29.653334-38.869334l4.522666-6.677333zM567.908046 405.333333m-128 0a128 128 0 1 1 256 0 128 128 0 1 1-256 0Z"  horiz-adv-x="1694" />

    
    <glyph glyph-name="yanjing11" unicode="&#58954;" d="M744.678 555.072c-13.745 8.88-27.61 17.028-41.598 24.448l-75.653-75.654a166.63 166.63 0 0 0 27.731-38.313l89.52 89.52z m-572.146-506.1l33.083-33.084L312.77 123.044c-14.596 7.419-28.705 15.325-42.45 23.596l-97.79-97.669zM432.576 242.97a163.302 163.302 0 0 0-38.435 27.61l-91.344-91.344c14.352-8.392 28.826-15.933 43.422-22.623l86.357 86.357zM885.28 695.676l-33.083 33.083-115.67-115.67c14.231-7.784 27.975-16.176 41.233-24.812l107.52 107.399zM619.277 429.672c-5.96 15.082-14.838 28.705-26.028 40.016L425.765 302.326c11.311-11.19 24.934-20.19 40.016-26.03l153.496 153.376z m-110.196 75.045c15.447 0 30.286-2.919 43.908-8.392l36.732 36.732c-23.96 13.623-51.449 21.407-80.64 21.407-93.412 0-165.052-74.68-165.052-165.051 0-29.8 7.663-57.41 20.92-81.127l34.179 34.177a119.032 119.032 0 0 0-8.393 43.909c0 65.315 52.91 118.345 118.346 118.345zM674.132 389.413c0 27.366-6.81 53.273-18.974 76.14l-35.88-35.881a118.661 118.661 0 0 0 8.149-43.3c0-62.275-52.91-118.346-118.346-118.346-15.325 0-29.921 2.92-43.3 8.15l-33.205-33.206c22.988-11.92 49.017-18.487 76.505-18.487 93.411 0 165.051 74.68 165.051 164.93zM465.78 276.175c-15.081 5.96-28.704 14.84-40.015 26.03l-31.746-31.746c11.433-10.947 24.326-20.312 38.435-27.61l33.327 33.326z m189.378 189.378c-7.42 13.987-16.785 26.88-27.731 38.313l-34.178-34.178c11.19-11.311 20.19-24.934 26.028-40.016l35.881 35.88zM261.93 205.265c-21.65 14.96-43.056 31.867-64.22 50.355-34.3 31.137-68.477 62.274-96.574 96.574-6.203 6.203-9.365 12.406-15.569 18.73 3.163 6.204 9.366 12.407 12.407 18.732 24.934 34.3 56.07 68.477 90.249 99.614 96.574 87.209 202.392 140.118 320.737 140.118 51.693 0 100.953-10.095 148.024-28.705l34.42 34.421C637.766 658.092 577.68 672.931 512 672.931c-298.966 0-479.464-305.169-479.464-305.169S109.163 259.147 229.94 173.52l31.988 31.745zM777.76 588.277l-33.204-33.205c29.191-18.852 57.53-40.99 85.14-65.923 34.3-31.137 62.275-65.437 90.25-99.615 3.162-6.203 9.365-12.406 12.406-18.73-3.162-6.204-9.365-12.407-15.569-18.732-27.974-31.137-59.112-65.437-96.573-96.574-99.615-84.046-205.555-136.955-311.372-136.955-54.612 0-109.102 13.258-162.862 38.07l-33.449-33.448C372.856 92.636 440.24 71.838 512 71.838c270.87 0 479.464 295.803 479.464 295.803s-76.87 130.265-213.703 220.636zM777.76 588.277c-13.135 8.757-26.88 17.028-41.232 24.812l-33.57-33.57a515.944 515.944 0 0 0 41.598-24.447l33.205 33.205z m-474.963-409.04l-32.475-32.476c13.744-8.392 27.853-16.298 42.449-23.596l33.448 33.448c-14.596 6.69-29.07 14.231-43.422 22.623z"  horiz-adv-x="1024" />

    
    <glyph glyph-name="yanjing3" unicode="&#58958;" d="M512 686.597C310.268 686.597 137.99 561.12 68.191 384 137.99 206.88 310.268 81.403 512 81.403c201.933 0 374.01 125.477 443.809 302.597C886.009 561.12 713.933 686.597 512 686.597z m0-504.329c-111.355 0-201.732 90.376-201.732 201.732S400.644 585.732 512 585.732 713.732 495.356 713.732 384 623.355 182.268 512 182.268z m0 322.77c-66.773 0-121.039-54.265-121.039-121.038S445.227 262.961 512 262.961 633.039 317.227 633.039 384 578.773 505.039 512 505.039z"  horiz-adv-x="1024" />

    
    <glyph glyph-name="chevron-copy" unicode="&#58927;" d="M142.679 361.57l479.122-479.157c13.943-13.907 36.48-13.907 50.422 0 13.943 13.943 13.943 36.515 0 50.458l-455.73 455.765 448.205 448.241c13.551 13.516 13.551 35.446 0 48.961-13.515 13.586-35.446 13.586-48.995 0l-465.5-465.464c-1.819-1.819-2.71-4.030-4.030-6.133-1.105-0.82-2.461-1.248-3.495-2.282-13.907-13.907-13.907-36.48 0-50.387z"  horiz-adv-x="1024" />

    
    <glyph glyph-name="shangxiazuoyou-" unicode="&#58989;" d="M413.28-36.16a51.84 51.84 0 0 0-36 18.08 54.72 54.72 0 0 0 0 72L672 384 377.28 714.4a54.72 54.72 0 0 0 0 72 48 48 0 0 0 66.08 0L768 420.16a54.72 54.72 0 0 0 0-72l-324.64-366.4a32.96 32.96 0 0 0-30.08-18.08z m0 0"  horiz-adv-x="1024" />

    
    <glyph glyph-name="shangxiazuoyou-1" unicode="&#58930;" d="M90.4 476.96a51.84 51.84 0 0 0 18.08 36 54.72 54.72 0 0 0 72 0l330.24-294.08 330.24 294.24a54.72 54.72 0 0 0 72 0 48 48 0 0 0 0-66.08L546.72 122.72a54.72 54.72 0 0 0-72 0l-366.4 324.32a32.96 32.96 0 0 0-18.08 30.08z m0 0"  horiz-adv-x="1024" />

    
    <glyph glyph-name="fangxiangzuo" unicode="&#58931;" d="M279.18556 426.66666666c0 10.855232 4.312212 21.267373 11.989055 28.943193L674.937976 839.37424266c15.985066 15.985066 41.902342 15.985066 57.886385 0 15.985066-15.985066 15.985066-41.901319 0-57.886385l-354.821191-354.820168 354.821191-354.820168c15.985066-15.985066 15.985066-41.901319 0-57.886385-15.985066-15.985066-41.901319-15.985066-57.886385 0L291.174616 397.72347366C283.497773 405.39929366 279.18556 415.81143466 279.18556 426.66666666z"  horiz-adv-x="1024" />

    
    <glyph glyph-name="shangxiazuoyou-2" unicode="&#58937;" d="M619.52 800A51.84 51.84 0 0 0 656 781.92a54.72 54.72 0 0 0 0-72L361.44 379.68 656 49.44a54.72 54.72 0 0 0 0-72 48 48 0 0 0-66.08 0L265.28 343.68a54.72 54.72 0 0 0 0 72L589.6 781.92A32.96 32.96 0 0 0 619.52 800z m0 0"  horiz-adv-x="1024" />

    
    <glyph glyph-name="fangxiangyou" unicode="&#58938;" d="M744.81444 384c0-10.855232-4.312212-21.267373-11.989055-28.943193L349.061001-28.706552999999985c-15.985066-15.985066-41.902342-15.985066-57.886385 0-15.985066 15.985066-15.985066 41.901319 0 57.886385l354.821191 354.820168-354.821191 354.820168c-15.985066 15.985066-15.985066 41.901319 0 57.886385 15.985066 15.985066 41.901319 15.985066 57.886385 0l383.764384-383.76336C740.502227 405.267373 744.81444 394.856255 744.81444 384z"  horiz-adv-x="1024" />

    
    <glyph glyph-name="fangxiangzuo1" unicode="&#58939;" d="M744.81444 384c0-10.855232-4.312212-21.267373-11.989055-28.943193L349.062024-28.707576000000017c-15.985066-15.985066-41.902342-15.985066-57.886385 0-15.985066 15.985066-15.985066 41.901319 0 57.886385l354.821191 354.820168-354.821191 354.820168c-15.985066 15.985066-15.985066 41.901319 0 57.886385 15.985066 15.985066 41.901319 15.985066 57.886385 0L732.825384 412.94319299C740.502227 405.267373 744.81444 394.855232 744.81444 384z"  horiz-adv-x="1024" />

    
    <glyph glyph-name="angle-up-copy" unicode="&#58941;" d="M511.30899999 612.8050000000001l-449.18699999-449.187 119.119 0 330.068 330.06800001 330.093-330.06800002 119.09 1e-8-449.182 449.187zM511.30899999 612.8050000000001z"  horiz-adv-x="1024" />

    
    <glyph glyph-name="angle-up-copy-copy-copy" unicode="&#58942;" d="M512.69100001 155.19500000000005l449.18699999 449.187-119.119 0-330.068-330.06800001-330.093 330.06800002-119.09-1e-8 449.182-449.187zM512.69100001 155.19500000000005z"  horiz-adv-x="1024" />

    
    <glyph glyph-name="shangxiazuoyou-3" unicode="&#58949;" d="M926.56 206.72a51.84 51.84 0 0 0-18.08-36 54.72 54.72 0 0 0-72 0L506.24 464.96 176 170.72a54.72 54.72 0 0 0-72 0 48 48 0 0 0 0 66.08l366.24 324.32a54.72 54.72 0 0 0 72 0L908.48 236.8a32.96 32.96 0 0 0 18.08-30.08z m0 0"  horiz-adv-x="1024" />

    
    <glyph glyph-name="shangsanjiao" unicode="&#59039;" d="M158.58400000000006 254.66899999999976l285.2779999999998 404.0320000000002c30.56799999999997 42.573000000000015 106.99099999999996 42.573000000000064 137.559 2.842170943040401e-14l286.13400000000024-404.03199999999975c30.56800000000001-42.572999999999986 8.649000000000079-112.937-52.48899999999993-112.93700000000001l-604.852-1.1368683772161603e-13c-61.135999999999996-3.907985046680551e-14-82.20000000000006 70.36399999999995-51.62900000000005 112.93699999999994z"  horiz-adv-x="1024" />

    
    <glyph glyph-name="sanjiaoxing4" unicode="&#58977;" d="M512 457.0112L0-128h1024L512 457.0112z"  horiz-adv-x="1024" />

    
    <glyph glyph-name="sanjiaoxing-copy-copy" unicode="&#59321;" d="M985.52685699 54.85714299999995L65.645714 54.85714299999995a36.571429 36.571429 0 0 0-28.086857 59.977143l459.958857 551.936a36.571429 36.571429 0 0 0 56.173715 0L1013.613714 114.83428600000002A36.571429 36.571429 0 0 0 985.52685699 54.85714299999995z"  horiz-adv-x="1024" />

    
    <glyph glyph-name="sanjiaoxing5" unicode="&#59141;" d="M768.04 397.43l-5.31-9.2c-0.23-0.4 0.06-0.9 0.52-0.9h10.62c0.46 0 0.75 0.5 0.52 0.9l-5.31 9.2a0.6 0.6 0 0 1-1.04 0zM885.18 108.82L545.25 697.58c-14.78 25.6-51.73 25.6-66.51 0L138.82 108.82c-14.78-25.6 3.7-57.6 33.25-57.6h679.84c29.57 0 48.05 32 33.27 57.6z"  horiz-adv-x="1024" />

    
    <glyph glyph-name="xsj" unicode="&#58926;" d="M535.466667 83.20000000000005l450.133333 563.2c14.933333 19.2 2.133333 49.066667-23.466667 49.066667H61.866667c-25.6 0-38.4-29.866667-23.466667-49.066667l450.133333-563.2c12.8-14.933333 34.133333-14.933333 46.933334 0z"  horiz-adv-x="1024" />

    
    </font>
</defs>
</svg>
